<svg xmlns="http://www.w3.org/2000/svg" width="844.599" height="1079.225" viewBox="0 0 844.599 1079.225">
  <g id="Group_1" data-name="Group 1" transform="translate(1.236 1.225)">
    <path id="Path_12" data-name="Path 12" d="M1.24,321.133c153.162,0,289.266-143.284,289.266-319.913H4.2Z" transform="translate(-1.24 -1.22)" fill="#bbe1fa" stroke="#bbe1fa" stroke-miterlimit="10" stroke-width="2.45"/>
    <path id="Path_13" data-name="Path 13" d="M79.4,539.694a166.654,166.654,0,0,1,333.309,0" transform="translate(405.177 538.306)" fill="#bbe1fa" stroke="#bbe1fa" stroke-miterlimit="10" stroke-width="2.45"/>
    <g id="Layer_2" data-name="Layer 2" transform="translate(173 204.636)">
      <g id="Layer_3" data-name="Layer 3" transform="translate(0 0)">
        <ellipse id="Ellipse_4" data-name="Ellipse 4" cx="324.889" cy="38.355" rx="324.889" ry="38.355" transform="translate(0 476.185)" fill="#bbe1fa"/>
        <path id="Path_14" data-name="Path 14" d="M61.512,242.088,60.7,214.54l22.336,4.693-3.61,23.419Z" transform="translate(76.25 269.565)" fill="#f0a7a5"/>
        <path id="Path_15" data-name="Path 15" d="M92.3,7.012c-6.543.406-11.619,5.686-18.049,15.793C57.483,49.112,43.766,88.866,53.941,95c3.271,1.963,6.475-1.06,18.049-4.512a111.748,111.748,0,0,1,36.1-4.512A20.306,20.306,0,0,1,101.321,74.7c-1.2-6.949,2.888-11.281,6.769-20.306,3.226-7.581,8.686-20.306,4.512-31.586C109.533,14.66,100.96,6.516,92.3,7.012Z" transform="translate(63.38 8.846)"/>
        <path id="Path_16" data-name="Path 16" d="M68.005,25.537c-.9-.406-.993-1.715-2.256-2.256a3.2,3.2,0,0,0-2.256,0,4.941,4.941,0,0,0-2.256,2.256,6.2,6.2,0,0,0,0,4.512,13.334,13.334,0,0,0,2.256,4.512c3.723,4.715,9.273,22.381,2.256,33.843-1.444,2.256-2.482,3.046-2.256,4.512.609,3.745,8.506,5.3,27.074,9.025-3.5-12.341-4.129-14.936-4.512-18.049a54.4,54.4,0,0,1,0-13.537,20.621,20.621,0,0,0,13.537-6.769,20.306,20.306,0,0,0,2.256-22.562C101.1,19.626,96.658,12,90.567,12c-3.948,0-8.641,3.79-18.049,11.281C72.089,23.687,69.562,26.3,68.005,25.537Z" transform="translate(76.39 15.139)" fill="#f0a7a5"/>
        <g id="Layer_6" data-name="Layer 6" transform="translate(124.09 90.312)">
          <path id="Path_17" data-name="Path 17" d="M66.281,40l33.843,4.512,13.537,175.982L55,213.726Q60.663,126.93,66.281,40Z" transform="translate(-55 -40)" fill="#fafbfc"/>
        </g>
        <path id="Path_18" data-name="Path 18" d="M17,231.306,28.281,211,46.33,222.281,32.793,238.074Z" transform="translate(21.355 265.118)" fill="#f0a7a5"/>
        <path id="Path_19" data-name="Path 19" d="M101,45.16l2.5-9.025a41,41,0,0,1,5.009-22.562C110.9,9.264,117.538-.934,121.057.036c2.978.812,4.512,9.769-2.5,47.38Z" transform="translate(126.874 0.029)" fill="#f0a7a5"/>
        <path id="Path_20" data-name="Path 20" d="M69.377,116.66c-1.985,22.562-5.031,46.455-9.521,71.611A813.677,813.677,0,0,1,20.35,331.764l21.772,10.9a488.709,488.709,0,0,0,63.872-148.524,480.157,480.157,0,0,0,11.777-71.859Z" transform="translate(25.563 146.61)" fill="#0f4c75"/>
        <path id="Path_21" data-name="Path 21" d="M75.567,76.661a46.071,46.071,0,0,0,24.818-6.769,48.756,48.756,0,0,0,13.537-13.537A113.847,113.847,0,0,0,131.972,18l22.562,6.769c.654,9.611,1.286,37.836-18.049,60.917-13.74,16.47-40.882,34.181-54.148,24.818C71.845,103.216,74.687,82.278,75.567,76.661Z" transform="translate(93.646 22.676)" fill="#4192bf"/>
        <g id="Layer_7" data-name="Layer 7" transform="translate(135.371 261.781)">
          <path id="Path_22" data-name="Path 22" d="M69.025,116c1.827,28.225,2.73,58.39,2.256,90.247A1145.156,1145.156,0,0,1,60,350.642H84.818L118.66,203.991l6.769-67.685Z" transform="translate(-60 -116)" fill="#0f4c75"/>
        </g>
        <path id="Path_23" data-name="Path 23" d="M93.148,37a34.587,34.587,0,0,0-13.537,9.025,37.565,37.565,0,0,0-9.025,22.562c-1.67,27.39-9.453,54.148-13.537,81.222A260.5,260.5,0,0,1,39,212.982a76.191,76.191,0,0,0,72.2,15.793l2.256-115.065q7.9,59.766,15.793,119.577l31.586,2.256Q148.65,172.574,136.016,109.2L131.5,86.636c-1.512-4.512-3-9.025-4.512-13.537a73.935,73.935,0,0,1-2.256-13.537c-.5-7.107.293-10.9-2.256-13.537s-6-2.549-9.025-2.256V113.71Z" transform="translate(48.991 46.543)" fill="#3282b8"/>
        <path id="Path_24" data-name="Path 24" d="M70.223,37.09,57.25,46.9l12.319,17.35L65.35,69.015l25.179,43.7Z" transform="translate(71.916 46.656)" fill="#bbe1fa"/>
        <path id="Path_25" data-name="Path 25" d="M72.361,40.57l9.386,6.114C80.19,51.941,78.61,57.2,77.054,62.477l3.317,3.271q-4.129,19.4-8.28,38.964Z" transform="translate(90.558 51.028)" fill="#bbe1fa"/>
        <path id="Path_26" data-name="Path 26" d="M45.547,104.52a77.5,77.5,0,0,0-4.512,29.33c.361,8.325,2.256,18.049,4.512,18.049,3.249.135,5.573-18.275,9.025-18.049,2.392.158,3.159,9.025,4.512,9.025s.654-7.626,2.256-18.049c1.76-11.506,4.512-14.913,2.256-18.049C62.017,104.52,57.8,102.264,45.547,104.52Z" transform="translate(51.469 130.187)" fill="#f0a7a5"/>
        <path id="Path_27" data-name="Path 27" d="M73.586,45.011c-7.445-.5-13.266,8.573-13.537,9.025-3.271,15.793-6.317,32.421-9.025,49.636-4.106,26.036-7.017,50.9-9.025,74.454l22.562,4.512L87.124,69.829C89.38,55.953,81.19,45.575,73.586,45.011Z" transform="translate(52.759 56.582)" fill="#3488b7"/>
        <path id="Path_28" data-name="Path 28" d="M29.049,215.117C26.906,214.011,22.01,216.989,11,230.91q47.38,32.173,51.892,27.074,3.384-3.881-18.049-29.33c-3.948.564-8.416.451-11.281-2.256C29.546,222.652,31.509,216.425,29.049,215.117Z" transform="translate(13.818 270.026)" fill="#0f4c75"/>
        <path id="Path_29" data-name="Path 29" d="M66.627,221.582c-2.392-.135-5.663,4.512-10.017,21.772q56.4,10.018,58.412,3.52,1.534-4.941-28.45-19.4c-3.362,2.143-7.491,3.858-11.281,2.549C70.124,228.215,69.4,221.717,66.627,221.582Z" transform="translate(71.112 278.406)" fill="#0f4c75"/>
      </g>
    </g>
    <g id="Layer_2-2" data-name="Layer 2" transform="translate(403.13 155)">
      <g id="Layer_8" data-name="Layer 8" transform="translate(0 0)">
        <g id="Layer_9" data-name="Layer 9" transform="translate(133.25 44.56)">
          <path id="Path_30" data-name="Path 30" d="M63.145,21.432c-2.031,1.692-1.309,3.452-2.256,15.793-1.421,18.817-4.242,24.006,0,29.33,0,0,.226.271,9.025,6.769l2.256,2.256q-1.106,14.688-2.256,29.33L101.5,86.861,96.987,59.787a7.175,7.175,0,0,0,4.512-6.769c0-1.512-.677-3.948-2.256-4.512-.993-.361-1.6.316-2.256,0-1.647-.79,0-6.272,0-9.025C96.987,28.562,71.041,14.867,63.145,21.432Z" transform="translate(-58.646 -19.722)" fill="#f0979d"/>
        </g>
        <path id="Path_31" data-name="Path 31" d="M60.22,35.284c-4.354-4.693-3.768-15.41,2.256-20.306,5.392-4.354,13.537-2.73,18.049,0s3.9,5.708,9.025,9.025c6.25,4.061,10.175,1.557,13.537,4.512,7.445,6.52.474,29.33-4.512,29.33-3.61,0-2.256-12-11.281-18.049C77.254,33.1,66.086,41.6,60.22,35.284Z" transform="translate(73.017 15.499)" fill="#0f4c75"/>
        <path id="Path_32" data-name="Path 32" d="M56.932,242.736a25.36,25.36,0,0,1-6.769,13.537c-2.617,2.595-4.761,3.384-4.512,4.512.474,2.053,7.964,2.256,22.562,2.256h6.769V240.48Z" transform="translate(58.255 302.149)" fill="#f0979d"/>
        <path id="Path_33" data-name="Path 33" d="M100.932,242.736a25.36,25.36,0,0,1-6.769,13.537c-2.617,2.595-4.76,3.384-4.512,4.512.474,2.053,7.964,2.256,22.562,2.256h6.769V240.48Z" transform="translate(113.527 302.149)" fill="#f0979d"/>
        <path id="Path_34" data-name="Path 34" d="M52.774,132.736c-3.271,29.646-5.663,61.3-6.769,94.759a1239.471,1239.471,0,0,0,4.512,153.42l24.818,2.256q18.049-95.865,36.1-191.775l18.049-60.917Z" transform="translate(57.9 163.97)" fill="#3282b8"/>
        <path id="Path_35" data-name="Path 35" d="M52.64,133.736a827.431,827.431,0,0,0,85.735,252.692h31.586c-8.3-32.8-15.432-59.134-20.306-76.71-11.958-43.183-14.462-48.982-15.793-65.429-.812-10.243-.541-16.56,2.256-69.941.451-8.506,1.8-34.136,2.256-42.867Z" transform="translate(67.059 165.226)" fill="#207ca5"/>
        <path id="Path_36" data-name="Path 36" d="M19.845,65.613c-3.452-35.6-2.256-44.672,0-45.124,2.595-.519,6.769,10.717,11.281,22.562,2.91,7.716,3.362,10.627,2.256,13.537C30.855,63.289,21.83,65.23,19.845,65.613Z" transform="translate(23.145 25.781)" fill="#f0979d"/>
        <path id="Path_37" data-name="Path 37" d="M63.152,56.971a40.747,40.747,0,0,0,40.611-7.491q1.151,65.068,2.256,130.159l-47.38,5.212Q60.919,120.933,63.152,56.971Z" transform="translate(74.596 62.22)" fill="#fff"/>
        <path id="Path_38" data-name="Path 38" d="M126.63,72.835,47.664,86.372,40.9,34.48,20.59,45.761a602.54,602.54,0,0,0-6.768,63.173c-.745,14.327-.835,25.969,6.768,31.587,5.6,4.129,13.086,3.362,18.049,2.256l54.148-20.306L86.019,255.585l106.04-2.256,20.306-128.6a89.05,89.05,0,0,0-4.512-27.074A50.494,50.494,0,0,0,198.828,79.6c-12.68-14.462-36.1-11.845-40.611-11.281q-10.085,133.25-18.049,133.114T126.63,72.835Z" transform="translate(17.887 43.377)" fill="#0f4c75"/>
        <path id="Path_39" data-name="Path 39" d="M97.264,162.449,73.777,88.763a14.665,14.665,0,0,0-8.1-9.025L17.6,58.936a1.828,1.828,0,0,0-2.392,2.256l23.735,72.2a14.643,14.643,0,0,0,7.671,8.731l48.214,22.562a1.828,1.828,0,0,0,2.437-2.234Z" transform="translate(19.931 73.949)" fill="#264373"/>
        <path id="Path_40" data-name="Path 40" d="M95.482,164.343,71.995,90.657a14.733,14.733,0,0,0-8.1-9.025L15.816,60.875a1.8,1.8,0,0,0-2.392,2.256l23.735,72.2a14.71,14.71,0,0,0,7.671,8.731l48.214,22.562a1.827,1.827,0,0,0,2.437-2.279Z" transform="translate(17.675 76.364)" fill="#7fb7f4"/>
        <path id="Path_41" data-name="Path 41" d="M54.271,82.75,36.56,88.007l22.359,9.047Z" transform="translate(46.86 104.013)" fill="#000d2b" stroke="#19224a" stroke-miterlimit="10" stroke-width="0"/>
        <path id="Path_42" data-name="Path 42" d="M135.143,54.311l-47.38,97.016L53.921,135.533Q48.3,143.452,42.64,151.326L90.02,196.45a38.535,38.535,0,0,0,20.306,2.256,43.386,43.386,0,0,0,15.793-6.769c12.319-8.551,29.082-55.66,40.611-121.833a20.982,20.982,0,0,0-13.537-18.049,21.592,21.592,0,0,0-18.049,2.256Z" transform="translate(54.497 64.157)" fill="#264373"/>
        <path id="Path_43" data-name="Path 43" d="M53.537,114.413c-4.828-2.662-14.44-9.025-18.049-20.306-1.579-5.009-2.437-12.341,0-13.537,3.9-1.9,12.815,13.537,18.049,11.281C57.35,90.317,55.793,81,58.05,80.57s7.22,7.6,6.769,15.793C64.254,106.742,55.32,113.172,53.537,114.413Z" transform="translate(43.6 101.071)" fill="#f0979d"/>
        <path id="Path_44" data-name="Path 44" d="M65.483,247.5,31.64,263.293v4.512l65.429,2.256c-.226-17.508-2.256-22.156-4.512-22.562s-3.2,2.775-6.769,4.512C79.832,254.923,72,251.606,65.483,247.5Z" transform="translate(40.679 310.923)" fill="#0f4c75"/>
        <path id="Path_45" data-name="Path 45" d="M110.483,247.5,76.64,263.293v4.512l65.429,2.256c-.226-17.508-2.256-22.156-4.512-22.562s-3.2,2.775-6.769,4.512C124.832,254.923,117,251.606,110.483,247.5Z" transform="translate(97.207 310.923)" fill="#0f4c75"/>
        <rect id="Rectangle_1" data-name="Rectangle 1" width="25.066" height="6.204" rx="1" transform="matrix(0.76, 0.65, -0.65, 0.76, 4.031, 11.15)" fill="#bbe1fa"/>
        <rect id="Rectangle_2" data-name="Rectangle 2" width="25.066" height="6.204" rx="1" transform="translate(42.108 0.191) rotate(91.76)" fill="#bbe1fa"/>
        <rect id="Rectangle_3" data-name="Rectangle 3" width="25.066" height="6.204" rx="1" transform="matrix(-0.65, 0.76, -0.76, -0.65, 71.672, 11.878)" fill="#bbe1fa"/>
      </g>
    </g>
    <g id="Layer_2-3" data-name="Layer 2" transform="translate(608.442 224.941)">
      <g id="Layer_10" data-name="Layer 10" transform="translate(0 0)">
        <path id="Path_1" data-name="Path 1" d="M48.924,6.926A30.955,30.955,0,0,0,39.9,22.719c-2.978,11.552-2.256,32.2,13.537,42.867s34.79,2.843,36.1,2.256l4.512-38.355A34.61,34.61,0,0,0,85.023,9.182,26.352,26.352,0,0,0,69.23.157,26.4,26.4,0,0,0,48.924,6.926Z" transform="translate(48.37 -0.036)"/>
        <g id="Layer_11" data-name="Layer 11" transform="translate(86.812 6.889)">
          <path id="Path_2" data-name="Path 2" d="M48.966,3.09a36.1,36.1,0,0,0-9.025,15.793c-.9,3.429-3.723,14.146,2.256,22.562a20.012,20.012,0,0,0,4.512,4.512V77.544c24.976,0,31.225-2.256,31.586-4.512,0-.722-.361-1.151-2.256-4.512a64.28,64.28,0,0,1-4.512-9.025C70.038,54.982,69.993,47.92,73.784,43.7s10.04-3.046,11.281-6.769c.745-2.256-.7-4.512-2.256-6.769C74.1,16.988,69.745,10.4,64.759,7.6A36.234,36.234,0,0,0,48.966,3.09Z" transform="translate(-38.484 -3.09)" fill="#f0979d"/>
        </g>
        <path id="Path_3" data-name="Path 3" d="M25.1,58.8,7.053,44.585c-3.159-1.128-5.889-1.241-6.769,0s.451,3.7,2.256,6.769A78.424,78.424,0,0,0,9.31,60.378c4.783,6.295,4.783,8.754,6.769,9.025S20.816,67.756,25.1,58.8Z" transform="translate(-0.007 54.808)" fill="#f0979d"/>
        <path id="Path_4" data-name="Path 4" d="M87.352,36.638c-8.1-1.873-8.664-2.662-11.281-2.256s-9.138,2.5-15.793,15.793C48.524,73.684,55.608,92.05,49,95.3c-3.813,1.873-12.048-1.376-31.586-24.818L6.13,86.274c1.354,2.843,25.991,53.313,51.892,49.636a20.78,20.78,0,0,0,6.769-2.256l9.025-31.586q1.151,7.9,2.256,15.793a92.887,92.887,0,0,0,18.049,6.769c10.2,2.64,30.075,7.784,42.867,0,24.412-14.846,12.86-70.528-2.256-85.735-2.256-2.256-7.423-7.468-13.537-6.769-5.009.564-5.279,4.512-11.281,6.769C104.973,40.7,99.107,39.345,87.352,36.638Z" transform="translate(7.685 40.193)" fill="#3282b8"/>
        <path id="Path_5" data-name="Path 5" d="M39.13,209.346q1.151,10.153,2.256,20.306H75.229L72.973,207.09Z" transform="translate(49.139 260.059)" fill="#f0979d"/>
        <path id="Path_6" data-name="Path 6" d="M83.13,206.346q1.151,10.153,2.256,20.306h33.843l-2.256-22.562Z" transform="translate(104.411 256.291)" fill="#f0979d"/>
        <path id="Path_7" data-name="Path 7" d="M50.279,70.09A612.509,612.509,0,0,0,32.23,155.825,627.733,627.733,0,0,0,43.511,383.7H108.94Q69.795,175.566,77.353,173.874t63.173,207.568h60.917L120.22,74.6Z" transform="translate(33.478 87.963)" fill="#0f4c75"/>
        <path id="Path_8" data-name="Path 8" d="M72.416,94.09c-3.317,12.657-5.325,22.043-4.106,22.562s4.016-7.287,6.137-6.769c3.971.948-.429,28.744,2.053,29.33S92.947,110.2,82.637,98.6A14.349,14.349,0,0,0,72.416,94.09Z" transform="translate(85.343 118.111)" fill="#f0979d"/>
        <path id="Path_9" data-name="Path 9" d="M65.315,34.145c-7.671,1.647-10.243,24.028-9.025,40.611,1.354,18.3,7.175,27.345,15.793,51.892a415.748,415.748,0,0,1,13.537,47.38l15.793,4.512c8.709-65.429-5.505-102.882-15.793-121.833C81.921,49.893,72.535,32.588,65.315,34.145Z" transform="translate(70.333 42.686)" fill="#3182af"/>
        <path id="Path_10" data-name="Path 10" d="M59.346,217.864,27.76,239.907l.835,4.512,67.144-10.4c-3.5-17.147-6.52-21.3-8.8-21.3s-2.753,3.362-6.047,5.753C75.32,222.376,66.656,220.571,59.346,217.864Z" transform="translate(34.856 267.132)" fill="#0f4c75"/>
        <path id="Path_11" data-name="Path 11" d="M102.346,215.864,70.76,237.907l.835,4.512,67.144-10.4c-3.5-17.147-6.52-21.3-8.8-21.3s-2.753,3.362-6.047,5.753C118.32,220.376,109.656,218.571,102.346,215.864Z" transform="translate(88.872 264.619)" fill="#0f4c75"/>
      </g>
    </g>
  </g>
</svg>
