<svg xmlns="http://www.w3.org/2000/svg" width="647" height="647" viewBox="0 0 647 647">
  <g id="Group_4" data-name="Group 4" transform="translate(-238 -3762)">
    <circle id="Ellipse_9" data-name="Ellipse 9" cx="323.5" cy="323.5" r="323.5" transform="translate(238 3762)" fill="#fff"/>
    <g id="Layer_2" data-name="Layer 2" transform="translate(292 3866.913)">
      <g id="Interview" transform="translate(0 0.087)">
        <g id="Layer_10" data-name="Layer 10" transform="translate(243.282 97.521)">
          <g id="Layer_11" data-name="Layer 11">
            <path id="Path_166" data-name="Path 166" d="M347.57,102.48H310.616q-9.743,30.087-19.5,60.183v6.448h69.793l23.6-64.488V102.48Z" transform="translate(-257.135 -102.48)" fill="#1a78c6"/>
            <path id="Path_167" data-name="Path 167" d="M258.554,162.54h0a3.924,3.924,0,0,0-3.076,3.219,3.867,3.867,0,0,0,1.029,3.229,4.3,4.3,0,0,0,3.076,1.076c2.762,0,14.572.067,30.792,0V162.54H259.583" transform="translate(-255.437 -105.338)" fill="#4584af"/>
          </g>
        </g>
        <g id="chairs" transform="translate(216.093 112.505)">
          <path id="Path_168" data-name="Path 168" d="M451.378,119.582a178.645,178.645,0,0,1,44.144,0c5.172,1.448,12.019,4.324,14.372,10.257,2.562,6.448-1.762,12.505-9.238,28.744-5.048,10.972-8.572,18.639-11.286,27.725-6.257,20.9-1.181,25.82-8.219,37.982-6.667,11.486-16.934,17.067-21.553,19.505a60.955,60.955,0,0,1-36.963,6.153,106.957,106.957,0,0,1-36.954,1.029c-13.429-2.01-26.572-3.981-32.849-14.372-3.81-6.314-3.61-13.277-3.076-17.448,37.858,4.286,53.545-3.991,60.564-13.334,8.705-11.619,4.524-25.525,15.4-60.574,2.962-9.524,6-17.305,8.21-22.582a175.562,175.562,0,0,1,17.448-3.086Z" transform="translate(-232.723 -118.213)" fill="#56a2f4"/>
          <path id="Path_169" data-name="Path 169" d="M389.7,257.456a64.869,64.869,0,0,1-3.086,34.906q-8.734,30.287-17.448,60.564a6.581,6.581,0,0,0,4.1,4.1,6.467,6.467,0,0,0,7.181-3.076q12.324-40.544,24.639-81.1a31.992,31.992,0,0,1,22.591-9.238,31.658,31.658,0,0,1,20.524,8.21l28.744,82.127a5.067,5.067,0,1,0,9.238-4.1l-28.744-95.47" transform="translate(-233.661 -124.693)" fill="#78bef9"/>
          <line id="Line_53" data-name="Line 53" y1="28.744" x2="9.238" transform="translate(0 155.355)" fill="none" stroke="#fff" stroke-miterlimit="10" stroke-width="3"/>
          <line id="Line_54" data-name="Line 54" y1="28.744" x2="9.238" transform="translate(0 155.355)" fill="none" stroke="#fff" stroke-miterlimit="10" stroke-width="3"/>
        </g>
        <g id="people" transform="translate(75.384)">
          <path id="Path_170" data-name="Path 170" d="M469.919,362.677c-.59,3.81-3.5,4.2-5.124,9.238s.619,6.724-1.029,11.3a16.353,16.353,0,0,1-7.191,8.21c-6.172,3.552-15.477,3.486-18.477-1.019a6.667,6.667,0,0,1-1.029-3.086,20.22,20.22,0,0,0,8.219-9.238c2.248-5.362,1.41-10.781,1.019-13.334,10.219,0,18.486-5.962,18.486-13.334C465.842,352.448,470.785,357.22,469.919,362.677Z" transform="translate(-96.182 -16.805)" fill="#2e3192"/>
          <path id="Path_171" data-name="Path 171" d="M465.205,351.184c0,7.381-8.267,13.334-18.486,13.334-.5-3.3-1.1-3.524-1.019-5.134.152-3.114,2.629-7.4,13.334-12.324A18.933,18.933,0,0,1,465.205,351.184Z" transform="translate(-96.592 -16.598)" fill="#f2c5b1"/>
          <path id="Path_172" data-name="Path 172" d="M388.26,379.669c-1.819,3.572-7.886.657-16.429,6.162,0,0-.124.076-7.191,5.134q-23.81,5.3-25.658,1.019-.886-2.019,3.076-6.153c2.6-.419,10.429-1.971,14.372-8.219.952-1.533,1.676-3.762,3.086-8.21.114-.381.219-.733.324-1.067,1.752-2.857,10.581-5.1,21.229-5.1C385.926,372.84,389.85,376.536,388.26,379.669Z" transform="translate(-91.507 -17.368)" fill="#2e3192"/>
          <path id="Path_173" data-name="Path 173" d="M404.963,278.242l48.249,59.545a20.953,20.953,0,0,1-7.191,11.3,20.591,20.591,0,0,1-9.238,4.1L379.3,291.595c-1.724-1.733-11.991-12.381-11.3-28.744.79-18.41,14.753-28.572,16.429-29.772a82.776,82.776,0,0,0-16.429,0,86.927,86.927,0,0,0-37.982,13.334l43.116,93.413c0,7.381-6.419,13.334-14.372,13.334a4.487,4.487,0,0,0-1.362-1.229,6.819,6.819,0,0,0-4.762-.829q-25.163-49.278-50.306-98.546c-.448-1.962-3.143-14.705,5.134-25.715,4.657-6.181,10.772-8.81,14.372-10.267,24.648-9.953,56.726-19.048,65.717-21.553,0,5.714,18.372,10.257,41.068,10.257,16.458,0,29.772-3.667,29.772-8.21-.114,4.362-1.038,13.039-7.191,20.534a30.348,30.348,0,0,1-4.1,4.1l-46.192,34.906a14.62,14.62,0,0,0-3.086,12.315A14.438,14.438,0,0,0,404.963,278.242Z" transform="translate(-89.734 -9.363)" fill="#2e3192"/>
          <path id="Path_174" data-name="Path 174" d="M382.119,362.471c-10.648,0-19.477,2.2-21.229,5.1,1.552-5.162,1.219-6.362.7-7.143,7.953,0,14.372-5.972,14.372-13.334A93.847,93.847,0,0,0,382.119,362.471Z" transform="translate(-92.557 -16.6)" fill="#f2c5b1"/>
          <path id="Path_175" data-name="Path 175" d="M463.15,186.426c-.686,1.362-1.362,2.743-2.048,4.1,0,4.543-13.334,8.21-29.772,8.21-22.7,0-41.068-4.581-41.068-10.257,5.972-7.562,6.972-16.42,3.086-21.563a12,12,0,0,0-6.162-4.1l-27.715,1.029,1.029-13.334,7.181-1.029,14.372-48.249-8.21-1.029c6.334-22.563,13.115-30.287,18.477-32.849,1.276-.61,6.372-2.8,6.162-5.134,7.381,0,13.334-2.752,13.334-6.162.867,2.172,4.333,2.857,7.181,3.086a110.032,110.032,0,0,1,24.648,31.811,112.156,112.156,0,0,1,8.21,21.553C459.254,138.587,462.064,166.035,463.15,186.426Z" transform="translate(-92.489 -2.75)" fill="#29abe2"/>
          <path id="Path_176" data-name="Path 176" d="M358.958,155.031l-1.029,13.334h-19.5q-12.067-6.343-11.3-9.238c.267-.952,1.638-1.667,4.1-2.057,10.829,1.286,14.153.9,14.372,0,.343-1.371-6.553-3.81-6.153-5.134.276-.9,3.962-.952,7.181,0s4.067,2.438,7.191,3.086a13.334,13.334,0,0,0,5.124.01Z" transform="translate(-90.949 -7.28)" fill="#f2c5b1"/>
          <path id="Path_177" data-name="Path 177" d="M421.781,37.986c-3.867,8.267-10.648,11.915-9.238,15.4-3.972,0-7.191-9.638-7.191-21.553-1.7,0-3.076-2.752-3.076-6.162h-11.3c-5.714,0-10.267-3.676-10.267-8.21l-3.876-1.9c-1.324-6.515-3.591-10.362-1.248-12.381,1.791-1.591,3.81,0,10.257,0,8.972,0,10.658-3.2,16.429-3.086,8.362.171,17,7.067,20.534,15.4C427.2,25.767,422.724,35.967,421.781,37.986Z" transform="translate(-93.208 -0.087)" fill="#2e3192"/>
          <path id="Path_178" data-name="Path 178" d="M412.594,54.158c0,3.41-5.962,6.162-13.334,6.162-.133-1.448-2.286-2.457-4.114-3.076-2.333,3.714-4.257,4.1-5.124,4.1-3.991,0-8.172-7.21-10.267-18.477a3.638,3.638,0,0,1-3.086,0C374,41.158,377.4,34.4,377.7,25.414a38.567,38.567,0,0,0-.8-9.124l3.876,1.9c0,4.533,4.591,8.21,10.267,8.21h11.3c0,3.41,1.371,6.162,3.076,6.162C405.4,44.52,408.623,54.158,412.594,54.158Z" transform="translate(-93.26 -0.858)" fill="#f2c5b1"/>
          <line id="Line_55" data-name="Line 55" x1="0.229" y1="0.114" transform="translate(283.4 15.318)" fill="none" stroke="#000" stroke-miterlimit="10" stroke-width="1"/>
          <g id="Layer_6" data-name="Layer 6" transform="translate(0 70.738)">
            <path id="Path_179" data-name="Path 179" d="M84.512,141c-2.01,5.572-2.162,9.3-4.267,9.438a2.314,2.314,0,0,1-1.1-.21,37.888,37.888,0,0,1,2.124-3.9Z" transform="translate(-79.15 -77.531)" fill="none"/>
            <path id="Path_180" data-name="Path 180" d="M109.551,112.63c-3.81,5.553-7.353,6.3-11.591,9.353.543-.552,1.1-1.1,1.657-1.648C104.074,116.116,107.2,114.392,109.551,112.63Z" transform="translate(-80.045 -76.181)" fill="none"/>
            <path id="Path_181" data-name="Path 181" d="M129.883,75.76a7.314,7.314,0,0,1-3.353-1.267,2.61,2.61,0,0,1,1.143-.114C128.578,74.484,129.168,75.217,129.883,75.76Z" transform="translate(-81.405 -74.36)" fill="none"/>
            <path id="Path_182" data-name="Path 182" d="M136.228,74.38a4.972,4.972,0,0,1-2.448,1.257,6.143,6.143,0,0,1,2.448-1.257Z" transform="translate(-81.75 -74.361)" fill="none"/>
          </g>
          <g id="Layer_8" data-name="Layer 8" transform="translate(52.383 349.977)">
            <path id="Path_183" data-name="Path 183" d="M139.864,367.55c-2.172,3-3.657,5.048-5.714,6.3a.146.146,0,0,1,.076-.143A22.229,22.229,0,0,1,139.864,367.55Z" transform="translate(-134.15 -367.55)" fill="#eda185"/>
            <path id="Path_184" data-name="Path 184" d="M144.251,408.4a9.381,9.381,0,0,1-1.438-3.333,8.267,8.267,0,0,1,.314-4.257A26.5,26.5,0,0,0,144.251,408.4Z" transform="translate(-134.555 -369.133)" fill="#eda185"/>
          </g>
        </g>
        <g id="tables" transform="translate(0 2.984)">
          <rect id="Rectangle_24" data-name="Rectangle 24" width="419.871" height="11.81" transform="translate(4.619 159.644)" fill="#90c2f4"/>
          <path id="Path_185" data-name="Path 185" d="M35.935,183.78,13.343,382.93H0L24.639,183.78Z" transform="translate(0 -11.812)" fill="#90c2f4"/>
          <path id="Path_186" data-name="Path 186" d="M438.978,182.7,416.444,381.859H403.12L427.711,182.7Z" transform="translate(-19.183 -11.761)" fill="#90c2f4"/>
          <path id="Path_187" data-name="Path 187" d="M563.98,381.769H550.675L528.15,182.8h11.267Z" transform="translate(-25.133 -11.766)" fill="#90c2f4"/>
          <rect id="Rectangle_25" data-name="Rectangle 25" width="98.546" height="11.296" transform="translate(423.976 159.644)" fill="#90c2f4"/>
          <path id="Path_188" data-name="Path 188" d="M158.189,382.529H144.875L122.35,183.57h11.258Z" transform="translate(-5.822 -11.802)" fill="#90c2f4"/>
          <path id="Path_189" data-name="Path 189" d="M89.428,280.139c-2.152,1.991-3.81,6.457-7.191,15.4-.5,1.352-1.362,3.724-2.276,6.429s-1.733,5.324-2.857,8.962Q66.827,344.265,56.57,377.656a5.876,5.876,0,0,0,4.1,7.191,5.8,5.8,0,0,0,6.172-3.038q12.315-41.068,24.639-82.127c3.81-2.429,12.991-7.619,24.629-7.191a29.972,29.972,0,0,1,15.4,4.1,26.887,26.887,0,0,1,5.134,4.1l26.668,81.108a5.648,5.648,0,0,0,5.124,3.076,5.9,5.9,0,0,0,5.133-6.162L144.859,279.11a88.061,88.061,0,0,1-25.658,2.057C103.429,280.072,94.895,275.081,89.428,280.139Z" transform="translate(-2.682 -16.292)" fill="#78bef9"/>
          <path id="Path_190" data-name="Path 190" d="M27.971,153.55c-.743.819-1.381,2.657,2.057,11.286a102.041,102.041,0,0,0,10.324,19.505c8.038,11.667,11.172,25.572,17.448,53.335,1.476,6.543,2.476,11.934,3.086,15.4A33.477,33.477,0,0,0,74.22,266.411a33.335,33.335,0,0,0,9.238,3.086c14.086,3,21.125,4.5,27.715,5.134,24.763,2.343,54.573-2.438,58.516-3.086,3.962-.41,5.238-1.562,5.648-2.562,1.162-2.857-3.086-8.21-3.086-8.21s-15.905-7.572-19.505-9.248c-26.391-12.258-34.63-6.257-48.24-15.391-7.619-5.076-3.724-6.057-28.744-46.2-7.924-12.591-14.839-22.991-27.791-30.734C41.714,155.417,30.885,150.388,27.971,153.55Z" transform="translate(-1.303 -10.326)" fill="#56a2f4"/>
          <g id="Layer_7" data-name="Layer 7" transform="translate(80.93 204.267)">
            <path id="Path_191" data-name="Path 191" d="M245.8,270.082q-2.572,47.23-5.133,94.451a33.62,33.62,0,0,0-2.057,8.21l-18.477-3.086c-.533-4.457-.362-12.886,0-29.763.467-22.163,3.086-31.7,0-32.849-2.1-.781-5.219,2.857-7.181,5.124-14.048,16.191-38.982,44.849-55.44,54.411-2.267,1.314-7.7,4.21-11.3,10.267-.648,1.086-1.791,4.143-4.1,10.267-.819,2.152-1.381,3.724-1.733,4.981a25.429,25.429,0,0,1,5.838-16.277,18.9,18.9,0,0,1-5.133-6.162,19.105,19.105,0,0,1-2.048-10.257c-.438.276-.952.61-1.514,1.019.476-.629.952-1.324,1.514-2.048,3.191-4.3,7.029-8.057,10.267-12.324,10.572-13.915,20.058-20.81,34.9-39,13.334-16.305,20-24.458,17.972-29.258-1.724-4.172-7.324-5.5-59.545-10.267a149.261,149.261,0,0,1-29.772-5.134c-14.924-4.286-26.239-7.524-27.715-14.372-2.429-11.277,21.972-31.268,45.716-30.287,3.038.124,5.791.771,11.286,2.057,19.048,4.438,26.515,9.524,46.2,17.448,25.144,10.115,30.972,9.038,43.116,18.477A82.766,82.766,0,0,1,245.8,270.082Z" transform="translate(-84.974 -217.693)" fill="#2e3192"/>
            <path id="Path_192" data-name="Path 192" d="M254.615,409.08c.229.724-5.134,1.029-6.153,1.029-2.057,0-6.381,2.543-9.248-7.191-.5-1.7-3.076-5.134-12.315-16.42a36.27,36.27,0,0,0,.276-5.21,35.1,35.1,0,0,1-.276-4.038l18.477,3.086c-.152,1.257-1.7,16.143,8.324,27.715.267.314.552.619.848.952Z" transform="translate(-91.728 -225.286)" fill="#f2c5b1"/>
            <path id="Path_193" data-name="Path 193" d="M266.827,417.753a37.4,37.4,0,0,1-9.238,1.029,38.1,38.1,0,0,1-14.372-3.076c-4.714-8.829-9.229-15.153-12.324-14.372-4.3,1.076-4.333,15.486-5.133,15.391s-.476-10.21-.733-15.42h0c-.171-3.457-.248-5.191-.3-6.1a36.048,36.048,0,0,0,2.057-8.21c9.238,11.286,11.819,14.715,12.315,16.42,2.857,9.734,7.191,7.191,9.248,7.191,1.019,0,6.381-.3,6.153-1.029l-.057-.1c.333.381.7.752,1.086,1.124a34.03,34.03,0,0,0,11.3,7.153Z" transform="translate(-91.625 -225.75)" fill="#2e3192"/>
            <path id="Path_194" data-name="Path 194" d="M145.537,416.115c-2.791,2.714-14.448-1.286-18.477-9.238-4.3-8.448,1.648-18.1-1.029-19.505-2.991-1.524-11.486,9.905-12.324,9.238-.571-.457,4.514-5.01,7.191-13.334.819-2.533,1.133-4.562,3.076-6.162,2.248-1.829,4.257-1.1,7.191-2.048a9.52,9.52,0,0,0,1.972-.886c-5.153,8.572-2.476,17.658-1.972,19.363a26.972,26.972,0,0,0,12.343,15.391c-.171-.467-.391-1.067-.61-1.8a13.086,13.086,0,0,0,2.667,2.857C146.261,412.153,146.833,414.867,145.537,416.115Z" transform="translate(-86.339 -225.14)" fill="#2e3192"/>
            <path id="Path_195" data-name="Path 195" d="M143.686,406.767c.219.733.438,1.333.61,1.8a26.972,26.972,0,0,1-12.353-15.4c-.5-1.7-3.181-10.829,1.971-19.363,2.1-1.257,3.581-3.3,5.714-6.3.562-.41,1.076-.743,1.514-1.019a19.105,19.105,0,0,0,2.048,10.257,18.9,18.9,0,0,0,5.134,6.162,25.429,25.429,0,0,0-5.838,16.277,8.267,8.267,0,0,0-.314,4.257,9.381,9.381,0,0,0,1.514,3.333Z" transform="translate(-87.155 -224.774)" fill="#f2c5b1"/>
            <path id="Path_196" data-name="Path 196" d="M255.888,410.522a11.622,11.622,0,0,1-.848-.952,4.762,4.762,0,0,1,.848.952Z" transform="translate(-93.067 -226.824)" fill="none" stroke="#000" stroke-miterlimit="10" stroke-width="1"/>
          </g>
          <g id="Layer_5" data-name="Layer 5" transform="translate(67.793 21.465)">
            <path id="Path_197" data-name="Path 197" d="M243.091,133.658v9.419c-33.134,10.115-57.735,16.858-64.612,17.791a20.953,20.953,0,0,1-6.248,0A23.925,23.925,0,0,1,160.8,155.64c-10.962-13.905-24.7-29.763-29.182-27.22-2.419,1.371-1.229,7.562,0,14.658,2.114,12.181,4.876,30.087,7.3,53.383,4.829,6.438,6.867,11.924,5.21,13.61-1.9,1.9-17.143,6.124-14.591,16.753.457,1.838,2.019,7.791-1.038,11.515-2.857,3.543-8.572,3.333-12.505,3.143-8.448-.419-20.4-1.286-35.43-3.143a15.133,15.133,0,0,1-5.21-6.286,13.658,13.658,0,0,1-1.048-4.181c-.457-4.629-1.676-22.2-3.124-46.059a118.5,118.5,0,0,0,2.086-20.953c0-3.667-.143-8.638,2.086-14.648.314-.838.629-1.619.952-2.314a2.562,2.562,0,0,0,1.124.219c2.133-.143,2.286-3.943,4.333-9.629,5.114-8.391,8.524-13.581,12.724-18,4.3-3.114,7.876-3.867,11.762-9.524a12.505,12.505,0,0,0,4.514-5.714c1.7-4.057,2.772-10.477,3.124-12.562.876-5.21.667-6.953,2.086-10.477,1.21-2.991,3.629-7.391,6.143-8.257a7.381,7.381,0,0,0,3.4,1.3,9.743,9.743,0,0,0,3.61-.133,4.9,4.9,0,0,0,2.476-1.286,5.553,5.553,0,0,1,2.333-.219c.886,5.134,3.372,11.105,7.029,12.753q16.686,27.21,33.334,54.44Z" transform="translate(-71.18 -27.842)" fill="#29abe2"/>
            <path id="Path_198" data-name="Path 198" d="M162.559,50.5a14.086,14.086,0,0,1-3.076,0s-.686,3.676-1.029,5.134-1.8,7.667-7.181,11.3c-1.524,1.019-3.038,2.038-5.134,2.048-4.153,0-6.41-3.972-8.21-3.076-1.619.8-.124,4.153-2.057,6.162a4.972,4.972,0,0,1-2.448,1.257,9.638,9.638,0,0,1-3.553.124,7.314,7.314,0,0,1-3.352-1.267,1.123,1.123,0,0,1-.21-.162,25.925,25.925,0,0,0,5.419-6.114,37.421,37.421,0,0,0,3.962-7.372c3.81-5.581,3.21-8.391,7.324-16.239a85.5,85.5,0,0,1,7.153-11.629c2.933-3.257,5.962-5.514,8.248-4.762,3.933,1.238,2.162,12.867,4.1,20.534a6.762,6.762,0,0,1,.038,4.067Z" transform="translate(-73.803 -25.757)" fill="#f2c5b1"/>
            <path id="Path_199" data-name="Path 199" d="M128.07,161.95l6.343,61.85,6.438-6.419Z" transform="translate(-73.887 -32.238)" fill="#29d8f6"/>
          </g>
          <path id="Path_200" data-name="Path 200" d="M84.512,141c-2.01,5.572-2.162,9.3-4.267,9.438a2.314,2.314,0,0,1-1.1-.21,37.888,37.888,0,0,1,2.124-3.9Z" transform="translate(-3.766 -9.776)" fill="#2e3192"/>
          <path id="Path_201" data-name="Path 201" d="M109.551,112.63c-3.81,5.553-7.353,6.3-11.591,9.353.543-.552,1.1-1.1,1.657-1.648C104.074,116.116,107.2,114.392,109.551,112.63Z" transform="translate(-4.662 -8.426)" fill="#2e3192"/>
          <path id="Path_202" data-name="Path 202" d="M163.884,67.908c-6.115,12.381-16.324,17.772-21.563,15.4-3.6-1.619-6.086-7.486-6.943-12.534a5.229,5.229,0,0,0-2.3.219c1.9-2.01.438-5.362,2.057-6.162,1.8-.9,4.057,3.086,8.21,3.076,2.1,0,3.61-1.029,5.134-2.048,5.381-3.629,6.876-9.972,7.181-11.3s1.029-5.134,1.029-5.134a14.086,14.086,0,0,0,3.076,0,6.762,6.762,0,0,0,0-4.1c-1.9-7.619-.171-19.3-4.1-20.534-2.286-.714-5.314,1.543-8.248,4.762a85.5,85.5,0,0,0-7.153,11.629c-4.114,7.848-3.476,10.658-7.324,16.239a37.42,37.42,0,0,1-4,7.41,25.925,25.925,0,0,1-5.457,6.115,1.125,1.125,0,0,0,.21.162c-2.476.848-4.857,5.172-6.048,8.1-1.391,3.448-1.191,5.162-2.048,10.267-.352,2.038-1.41,8.343-3.086,12.315a12.381,12.381,0,0,1-4.438,5.638c-2.352,1.762-5.476,3.486-9.934,7.705-.562.543-1.114,1.1-1.657,1.648h0a29.944,29.944,0,0,0-6.543,6.562,41.373,41.373,0,0,0-5.972,11.105l-3.238,5.334a37.888,37.888,0,0,0-2.124,3.9c-5.81-2.448-15.762-24.925-8.143-40.849,4.562-9.524,11.372-8.267,15.4-18.477,4.981-12.715-3.591-19.61,2.048-29.782,4.667-8.438,11.572-5.524,18.486-15.4,6.362-9.1,1.829-13.458,8.21-22.582.562-.8,10.124-14.058,24.639-13.334a25.287,25.287,0,0,1,12.315,4.1c9.038,5.934,11.5,16.02,13.334,23.61a72.745,72.745,0,0,1-1.01,36.944Z" transform="translate(-3.222 -3.22)" fill="#2e3192"/>
          <path id="Path_203" data-name="Path 203" d="M251.26,138.2l.676,6.667h12.9c5.324-2.1,7.8-3.629,7.467-4.581-.181-.5-1.086-.829-2.714-1.019-7.162.629-9.353.448-9.524,0-.219-.686,4.343-1.9,4.076-2.552-.181-.448-2.619-.486-4.762,0s-2.686,1.21-4.762,1.524a11.076,11.076,0,0,1-3.353-.038Z" transform="translate(-11.957 -9.556)" fill="#f2c5b1"/>
          <path id="Path_204" data-name="Path 204" d="M343.8,133.044c-1.324,4.314-6.038,7.819-8.572,6.667-2.029-.952-2.371-4.686-1.9-7.143.952-4.867,5.886-9.153,8.572-8.1C344.093,125.329,344.788,129.8,343.8,133.044Z" transform="translate(-15.853 -8.982)" fill="#0c104c"/>
        </g>
      </g>
    </g>
  </g>
</svg>
