<svg xmlns="http://www.w3.org/2000/svg" xmlns:xlink="http://www.w3.org/1999/xlink" width="647" height="647" viewBox="0 0 647 647">
  <defs>
    <clipPath id="clip-path">
      <rect id="Rectangle_6" data-name="Rectangle 6" width="498" height="434" transform="translate(0 1080.359)" fill="#066493"/>
    </clipPath>
  </defs>
  <g id="Group_2" data-name="Group 2" transform="translate(-197 -1337)">
    <circle id="Ellipse_5" data-name="Ellipse 5" cx="323.5" cy="323.5" r="323.5" transform="translate(197 1337)" fill="#fff"/>
    <g id="Mask_Group_1" data-name="Mask Group 1" transform="translate(271 362.641)" clip-path="url(#clip-path)">
      <g id="Layer_2" data-name="Layer 2" transform="translate(133.962 1079.975)">
        <g id="Слой_2" data-name="Слой 2">
          <path id="Path_46" data-name="Path 46" d="M172.087,690.055s-10.7,2.751-17.5.7-18.511,1.318-20.4,3.8-1.194,3.467,2.17,4.34,15.283,5.968,23.112,3,18.05-3.049,18.05-3.049Z" transform="translate(-98.643 -511.207)" fill="#f9b88c"/>
          <path id="Path_47" data-name="Path 47" d="M352.97,297.319s-12.017,85.434-31.912,93.089c-9.82,3.8-53.229,12.332-66.065,13.195,0,0-3.147-2.55-2.382-12.94,0,0,45.476-16.694,51.937-25.776,9.614-13.509-5.968-55.2,6.1-67.893S343.02,278.845,352.97,297.319Z" transform="translate(-187.051 -211.424)" fill="#4a75cb"/>
          <path id="Path_48" data-name="Path 48" d="M463.872,1213.1v-18.788H493.2a1.443,1.443,0,0,0,1.438-1.443v-2.984a1.438,1.438,0,0,0-1.438-1.438h-29.33V1082.405a5.425,5.425,0,0,0-5.425-5.425h-5.789a5.425,5.425,0,0,0-5.425,5.425v106.039H417.918a1.438,1.438,0,0,0-1.438,1.438v2.984a1.443,1.443,0,0,0,1.438,1.443h29.324V1213.1c-21.219,1.628-38.216,9.223-42.985,19.114h102.6C502.088,1222.343,485.09,1214.7,463.872,1213.1Z" transform="translate(-299.482 -797.849)" fill="#2b478b"/>
          <path id="Path_49" data-name="Path 49" d="M278.877,882.515a150.15,150.15,0,0,1-11.746,16.819c-12.918,16.292-26.97,29.737-29.433,42.448a57.275,57.275,0,0,1-2.268,8.138c-1.025,2.913-2.289,5.968-3.749,9.136-5.485,11.936-13.683,25.255-21.87,37.386-14.139,20.969-27.458,38.477-27.458,38.477l-24.414-1.036c.982-2.447,11.621-31.4,25.863-66.781l17.86-44.374,2.36-5.87,5.344-13.271c13.368-33.22,24.018-59.679,24.018-59.679s53.435-20.253,58.99-7.14C296.954,847.586,293.227,858.182,278.877,882.515Z" transform="translate(-117.005 -616.622)" fill="#163560"/>
          <path id="Path_50" data-name="Path 50" d="M107.266,1578.222s-1.194,20.231-5.089,20.519c-.543.038-44.57,0-44.57,0s.353-6.12,7.53-7.389,19.2-6.3,23.546-15.788C93.263,1565.6,107.266,1578.222,107.266,1578.222Z" transform="translate(-42.677 -1164.373)" fill="#163560"/>
          <path id="Path_51" data-name="Path 51" d="M430.706,1374.793s16.976,10.91,15.327,14.453c-.217.467-9.6,17.269-9.6,17.269l-12.1,21.376s-5.089-3.027-2.68-9.9,3.857-19.835-2.306-28.255C412.862,1380.891,430.706,1374.793,430.706,1374.793Z" transform="translate(-309.611 -1018.475)" fill="#163560"/>
          <path id="Path_52" data-name="Path 52" d="M164.751,838.93s-67.492,42.009-74.979,70.112,89.221,87.946,89.221,87.946,10.607-9.359,12.478-16.222c0,0-43.712-52.371-53.2-64.112-5.821-7.21,86.106-24.957,97.337-42.427s7.2-32.167,7.2-32.167Z" transform="translate(-66.199 -621.497)" fill="#1c468a"/>
          <rect id="Rectangle_8" data-name="Rectangle 8" width="147.251" height="37.435" rx="18.718" transform="translate(82.45 271.313)" fill="#8fbfea"/>
          <path id="Path_53" data-name="Path 53" d="M501.554,193.945s-26.633,14.887-42.7,10.731a37.978,37.978,0,0,1,10.2-9.256c-.353-1.562-.662-3.038-.928-4.405a105.2,105.2,0,0,1-1.785-12.413L478.61,167.61l8.252,1.747c.157.808.331,1.6.542,2.371C491.213,187,501.554,193.945,501.554,193.945Z" transform="translate(-339.926 -124.169)" fill="#e49963"/>
          <path id="Path_54" data-name="Path 54" d="M453.084,328.317c-2.322,30.957.727,78.039-1.888,86.177-2.252,7.053-27.924,2.854-38.173.51-3.8-.874-8.388-2.11-13.135-3.581-13.233-4.1-27.669-9.95-29.2-14.3a3.65,3.65,0,0,1-.141-.5h0a2.22,2.22,0,0,0-.06-.331,4.026,4.026,0,0,1,.087-1.487c.515-2.214,2.5-4.606,2.713-10.091.26-6.12.222-13.33.456-21.083a20.711,20.711,0,0,1,.119-2.713v-.814c.228-8.643.678-17.736,1.2-26.747.331-5.659.716-11.269,1.161-16.64,1.15-13.867,2.713-26.2,4.769-34,3.364-12.706,10.78-21,17.54-27.073l4.883-4.188a28.227,28.227,0,0,0,17.719-2.36c6.31-2.995,8.491-5.143,9.587-4.34C445.337,256.034,455.8,290.475,453.084,328.317Z" transform="translate(-274.437 -181.202)" fill="#739af0"/>
          <path id="Path_55" data-name="Path 55" d="M399.888,676.844c-13.233-4.1-27.669-9.95-29.2-14.3a3.654,3.654,0,0,1-.141-.5h0a1.042,1.042,0,0,0-.06-.331,4.026,4.026,0,0,1,.087-1.487c.515-2.214,2.5-4.606,2.713-10.091.26-6.12.222-13.33.456-21.083a20.709,20.709,0,0,1,.119-2.713v-.814l50.033-22.662S426.771,643.164,399.888,676.844Z" transform="translate(-274.437 -446.618)" fill="#4a75cb"/>
          <path id="Path_56" data-name="Path 56" d="M508.783,171.728c-1.812,4.59-7.254,15.414-19.238,19.287a105.2,105.2,0,0,1-1.807-12.413L500.01,167.61l8.252,1.747C508.414,170.166,508.588,170.952,508.783,171.728Z" transform="translate(-361.326 -124.169)" fill="#f7b284"/>
          <path id="Path_57" data-name="Path 57" d="M451.213,84.443s26.329,2.973,27.925-13.455,6.071-27.127-10.672-29.7S447.85,44.653,445.978,50,444.4,83.25,451.213,84.443Z" transform="translate(-329.657 -30.13)" fill="#f9b88c"/>
          <path id="Path_58" data-name="Path 58" d="M475.494,41.993s-1.666-21.8-25.635-24.062C433.442,16.385,442.594,2.252,444.347,0c0,0,12.576,1.725,25.467,3.852C496.875,8.328,478.152,38.6,475.494,41.993Z" transform="translate(-326.127)" fill="#2b478b"/>
          <path id="Path_59" data-name="Path 59" d="M86.1,595.5,20.855,596.89,2.306,539.8,0,540.547,19.613,600.9l66.575-1.422Z" transform="translate(0 -399.894)" fill="#4a75cb"/>
          <path id="Path_60" data-name="Path 60" d="M196.059,740.734s-10.335,3.912-17.323,2.626-18.224,3.347-19.852,6.022-.8,3.575,2.637,4.053,15.842,4.221,23.329.434,17.6-5.024,17.6-5.024Z" transform="translate(-117.109 -548.751)" fill="#f9b88c"/>
          <path id="Path_61" data-name="Path 61" d="M363.969,316.514s-2.528,86.264-21.468,96.029c-9.348,4.834-51.541,18.126-64.209,20.4,0,0-3.407-2.17-3.8-12.6,0,0,43.36-21.609,48.78-31.342,8.062-14.491-12.023-54.21-1.427-68.154S352.039,299.273,363.969,316.514Z" transform="translate(-203.351 -227.115)" fill="#739af0"/>
        </g>
      </g>
    </g>
  </g>
</svg>
