<svg xmlns="http://www.w3.org/2000/svg" width="647" height="647" viewBox="0 0 647 647">
  <g id="Group_3" data-name="Group 3" transform="translate(-1055 -2481)">
    <circle id="Ellipse_6" data-name="Ellipse 6" cx="323.5" cy="323.5" r="323.5" transform="translate(1055 2481)" fill="#fff"/>
    <g id="Layer_2" data-name="Layer 2" transform="translate(1126.972 2563.5)">
      <g id="OBJECTS" transform="translate(0.028 0.5)">
        <rect id="Rectangle_10" data-name="Rectangle 10" width="257.757" height="257.757" transform="translate(343.755 0) rotate(90)" fill="#fff" stroke="#7c8bd8" stroke-linejoin="round" stroke-width="1"/>
        <rect id="Rectangle_11" data-name="Rectangle 11" width="232.693" height="232.693" transform="translate(98.529 12.532)" fill="none" stroke="#7c8bd8" stroke-linejoin="round" stroke-width="1"/>
        <rect id="Rectangle_12" data-name="Rectangle 12" width="23.548" height="18.973" transform="translate(118.605 69.765)" fill="#abb3ed" opacity="0.35"/>
        <line id="Line_1" data-name="Line 1" x2="16.279" transform="translate(152.981 69.765)" fill="none" stroke="#abb3ed" stroke-miterlimit="10" stroke-width="1" opacity="0.35"/>
        <line id="Line_2" data-name="Line 2" x2="32.921" transform="translate(152.981 88.726)" fill="none" stroke="#abb3ed" stroke-miterlimit="10" stroke-width="1" opacity="0.35"/>
        <line id="Line_3" data-name="Line 3" x2="32.921" transform="translate(152.981 82.623)" fill="none" stroke="#abb3ed" stroke-miterlimit="10" stroke-width="1" opacity="0.35"/>
        <line id="Line_4" data-name="Line 4" x2="32.921" transform="translate(152.981 76.683)" fill="none" stroke="#abb3ed" stroke-miterlimit="10" stroke-width="1" opacity="0.35"/>
        <rect id="Rectangle_13" data-name="Rectangle 13" width="23.548" height="18.961" transform="translate(118.605 107.524)" fill="#abb3ed" opacity="0.35"/>
        <line id="Line_5" data-name="Line 5" x2="16.279" transform="translate(152.981 107.524)" fill="none" stroke="#abb3ed" stroke-miterlimit="10" stroke-width="1" opacity="0.35"/>
        <line id="Line_6" data-name="Line 6" x2="32.921" transform="translate(152.981 126.485)" fill="none" stroke="#abb3ed" stroke-miterlimit="10" stroke-width="1" opacity="0.35"/>
        <line id="Line_7" data-name="Line 7" x2="32.921" transform="translate(152.981 120.395)" fill="none" stroke="#abb3ed" stroke-miterlimit="10" stroke-width="1" opacity="0.35"/>
        <line id="Line_8" data-name="Line 8" x2="32.921" transform="translate(152.981 114.442)" fill="none" stroke="#abb3ed" stroke-miterlimit="10" stroke-width="1" opacity="0.35"/>
        <rect id="Rectangle_14" data-name="Rectangle 14" width="23.548" height="18.961" transform="translate(118.605 145.283)" fill="#abb3ed" opacity="0.35"/>
        <line id="Line_9" data-name="Line 9" x2="16.279" transform="translate(152.981 145.283)" fill="none" stroke="#abb3ed" stroke-miterlimit="10" stroke-width="1" opacity="0.35"/>
        <line id="Line_10" data-name="Line 10" x2="32.921" transform="translate(152.981 164.256)" fill="none" stroke="#abb3ed" stroke-miterlimit="10" stroke-width="1" opacity="0.35"/>
        <line id="Line_11" data-name="Line 11" x2="32.921" transform="translate(152.981 158.153)" fill="none" stroke="#abb3ed" stroke-miterlimit="10" stroke-width="1" opacity="0.35"/>
        <line id="Line_12" data-name="Line 12" x2="32.921" transform="translate(152.981 152.201)" fill="none" stroke="#abb3ed" stroke-miterlimit="10" stroke-width="1" opacity="0.35"/>
        <rect id="Rectangle_15" data-name="Rectangle 15" width="23.548" height="18.973" transform="translate(118.605 183.042)" fill="#abb3ed" opacity="0.35"/>
        <line id="Line_13" data-name="Line 13" x2="16.279" transform="translate(152.981 183.042)" fill="none" stroke="#abb3ed" stroke-miterlimit="10" stroke-width="1" opacity="0.35"/>
        <line id="Line_14" data-name="Line 14" x2="32.921" transform="translate(152.981 202.015)" fill="none" stroke="#abb3ed" stroke-miterlimit="10" stroke-width="1" opacity="0.35"/>
        <line id="Line_15" data-name="Line 15" x2="32.921" transform="translate(152.981 195.912)" fill="none" stroke="#abb3ed" stroke-miterlimit="10" stroke-width="1" opacity="0.35"/>
        <line id="Line_16" data-name="Line 16" x2="32.921" transform="translate(152.981 189.972)" fill="none" stroke="#abb3ed" stroke-miterlimit="10" stroke-width="1" opacity="0.35"/>
        <rect id="Rectangle_16" data-name="Rectangle 16" width="23.548" height="18.973" transform="translate(219.513 72.385)" fill="#abb3ed" opacity="0.35"/>
        <line id="Line_17" data-name="Line 17" x2="16.279" transform="translate(253.875 72.385)" fill="none" stroke="#abb3ed" stroke-miterlimit="10" stroke-width="1" opacity="0.35"/>
        <line id="Line_18" data-name="Line 18" x2="32.921" transform="translate(253.875 91.358)" fill="none" stroke="#abb3ed" stroke-miterlimit="10" stroke-width="1" opacity="0.35"/>
        <line id="Line_19" data-name="Line 19" x2="32.921" transform="translate(253.875 85.255)" fill="none" stroke="#abb3ed" stroke-miterlimit="10" stroke-width="1" opacity="0.35"/>
        <line id="Line_20" data-name="Line 20" x2="32.921" transform="translate(253.875 79.302)" fill="none" stroke="#abb3ed" stroke-miterlimit="10" stroke-width="1" opacity="0.35"/>
        <rect id="Rectangle_17" data-name="Rectangle 17" width="23.548" height="18.961" transform="translate(219.513 110.143)" fill="#abb3ed" opacity="0.35"/>
        <line id="Line_21" data-name="Line 21" x2="16.279" transform="translate(253.875 110.143)" fill="none" stroke="#abb3ed" stroke-miterlimit="10" stroke-width="1" opacity="0.35"/>
        <line id="Line_22" data-name="Line 22" x2="32.921" transform="translate(253.875 129.117)" fill="none" stroke="#abb3ed" stroke-miterlimit="10" stroke-width="1" opacity="0.35"/>
        <line id="Line_23" data-name="Line 23" x2="32.921" transform="translate(253.875 123.014)" fill="none" stroke="#abb3ed" stroke-miterlimit="10" stroke-width="1" opacity="0.35"/>
        <line id="Line_24" data-name="Line 24" x2="32.921" transform="translate(253.875 117.074)" fill="none" stroke="#abb3ed" stroke-miterlimit="10" stroke-width="1" opacity="0.35"/>
        <rect id="Rectangle_18" data-name="Rectangle 18" width="23.548" height="18.973" transform="translate(219.513 147.915)" fill="#abb3ed" opacity="0.35"/>
        <line id="Line_25" data-name="Line 25" x2="16.279" transform="translate(253.875 147.915)" fill="none" stroke="#abb3ed" stroke-miterlimit="10" stroke-width="1" opacity="0.35"/>
        <line id="Line_26" data-name="Line 26" x2="32.921" transform="translate(253.875 166.876)" fill="none" stroke="#abb3ed" stroke-miterlimit="10" stroke-width="1" opacity="0.35"/>
        <line id="Line_27" data-name="Line 27" x2="32.921" transform="translate(253.875 160.772)" fill="none" stroke="#abb3ed" stroke-miterlimit="10" stroke-width="1" opacity="0.35"/>
        <line id="Line_28" data-name="Line 28" x2="32.921" transform="translate(253.875 154.832)" fill="none" stroke="#abb3ed" stroke-miterlimit="10" stroke-width="1" opacity="0.35"/>
        <rect id="Rectangle_19" data-name="Rectangle 19" width="23.548" height="18.961" transform="translate(219.513 185.673)" fill="#abb3ed" opacity="0.35"/>
        <line id="Line_29" data-name="Line 29" x2="16.279" transform="translate(253.875 185.673)" fill="none" stroke="#abb3ed" stroke-miterlimit="10" stroke-width="1" opacity="0.35"/>
        <line id="Line_30" data-name="Line 30" x2="32.921" transform="translate(253.875 204.634)" fill="none" stroke="#abb3ed" stroke-miterlimit="10" stroke-width="1" opacity="0.35"/>
        <line id="Line_31" data-name="Line 31" x2="32.921" transform="translate(253.875 198.531)" fill="none" stroke="#abb3ed" stroke-miterlimit="10" stroke-width="1" opacity="0.35"/>
        <line id="Line_32" data-name="Line 32" x2="32.921" transform="translate(253.875 192.591)" fill="none" stroke="#abb3ed" stroke-miterlimit="10" stroke-width="1" opacity="0.35"/>
        <line id="Line_33" data-name="Line 33" x2="104.767" transform="translate(147.943 24.575)" opacity="0.35" stroke="#abb3ed" stroke-linecap="round" stroke-linejoin="round" stroke-width="2" fill="none"/>
        <line id="Line_34" data-name="Line 34" x2="164.971" transform="translate(114.081 35.979)" opacity="0.35" stroke="#abb3ed" stroke-linecap="round" stroke-linejoin="round" stroke-width="2" fill="none"/>
        <path id="Path_62" data-name="Path 62" d="M367.583,88.753l1.742,14.963a20.765,20.765,0,0,1-14.036,6.04c-8.459,0-8.459-5.639-8.459-5.639l1.617-12.883,13-13.635,6.141,11.153" transform="translate(87.781 19.021)" fill="#ffcbc2"/>
        <path id="Path_63" data-name="Path 63" d="M345.5,78.754c0-.539-.7-.827-1.253-.752a2.431,2.431,0,0,0-1.755,1.366,5.5,5.5,0,0,0-.464,2.256,4.4,4.4,0,0,0,.351,2.093,2.619,2.619,0,0,0,3.283,1.14" transform="translate(86.563 19.12)" fill="#f9bbaf"/>
        <path id="Path_64" data-name="Path 64" d="M345.886,70.8s-4.474,17.043-2.018,20.54c3.672,5.226,12.419,5.627,16.1,3.221,3.1-2.03,5.639-12.9,5.639-15.7C365.612,71.2,349.909,66.774,345.886,70.8Z" transform="translate(86.845 16.915)" fill="#ffcbc2"/>
        <path id="Path_65" data-name="Path 65" d="M370.416,85.183A16.957,16.957,0,0,1,370.9,83.5c.489-1.341,1.253-2.506,1.742-3.835a6.8,6.8,0,0,0-2.043-7.644,11.946,11.946,0,0,1-1.165-.94,9.511,9.511,0,0,1-1.516-3A4.085,4.085,0,0,0,366.193,66c-1.867-1-4.349.351-6.266-.652a7.874,7.874,0,0,1-1.115-.8c-2.682-2.018-5.715-1.554-8.635-.5a9.536,9.536,0,0,0-2.958,1.917c-1.253.977-2.958.9-4.211,1.855a5.514,5.514,0,0,0-1.654,4.461,4.161,4.161,0,0,0,.276,1.754,3.321,3.321,0,0,0,1.792,1.466,10.828,10.828,0,0,0,5.339.338c1.729-.138,3.76-1.353,5.439-.727s2.08,2.657,4.123,2.807c.8,0,1.78-.088,2.256.564s.251,1.93.677,2.782a21.738,21.738,0,0,0,1.629,2.243c1.028,1.466,2.506,2.506,1.968,4.374-.363,1.328-1.83,3.459-1.253,4.862.4.927,2.444.9,3.985-.263s2.055-3.509,2.444-5.351C370.128,86.487,370.266,85.835,370.416,85.183Z" transform="translate(86.389 15.36)" fill="#212237"/>
        <path id="Path_66" data-name="Path 66" d="M352.194,295.225,348.748,329.8l.288,10.865-42.609-.213a1.867,1.867,0,0,1-1.867-1.892h0a1.88,1.88,0,0,1,1.253-1.754l18.384-8.459,1.767-35.967" transform="translate(77.079 73.403)" fill="#ffcbc2"/>
        <path id="Path_67" data-name="Path 67" d="M303.095,332.722c.439-1.366,1.253-2.895,2.043-3.246l19.487-8.4c10.752,4.361,24.663,1.028,24.663,1.028l2.506,14.675a.877.877,0,0,1-.89.877H303.421C302.468,337.66,303.032,332.772,303.095,332.722Z" transform="translate(76.651 80.669)" fill="#011e3b"/>
        <path id="Path_68" data-name="Path 68" d="M329.458,179.525c-7.331,52.634-13.9,177.014-13.9,177.014h36.706s7.519-77.7,14-133.992c16.154-26.731,14.9-55.68,16.718-59.527" transform="translate(79.864 40.649)" fill="#0f4c75"/>
        <path id="Path_69" data-name="Path 69" d="M398.224,295.225,399.79,329.8l.288,10.865-42.609-.213a1.892,1.892,0,0,1-1.88-1.892h0a1.88,1.88,0,0,1,1.253-1.754l18.384-8.459-3.246-35.967" transform="translate(89.999 73.403)" fill="#ffcbc2"/>
        <path id="Path_70" data-name="Path 70" d="M354.132,332.722a5.84,5.84,0,0,1,2.043-3.246l19.5-8.4c10.74,4.361,24.65,1.028,24.65,1.028l2.506,14.675a.877.877,0,0,1-.877.877h-47.5C353.505,337.66,354.119,332.772,354.132,332.722Z" transform="translate(89.578 80.669)" fill="#011e3b"/>
        <path id="Path_71" data-name="Path 71" d="M398.536,172.518a205.23,205.23,0,0,1-.915,41.142c3.133,63.387,7.519,140.746,7.519,140.746H368.4s-17.67-140.358-18.5-182.967" transform="translate(88.559 42.781)" fill="#0f4c75"/>
        <path id="Path_72" data-name="Path 72" d="M301.968,120.753c-8.359-8.772-17.72-18.46-18.51-18.284a.464.464,0,0,0-.175.075c-.589.539,1.4,3.509.564,3.5-1.14,0-6.617-7.519-7.419-7.168-.251.113-.251,1.1,1.253,5.664a1.554,1.554,0,0,1,.075,1.328c-.163.338-.439.4-.752.827a2.507,2.507,0,0,0-.476,1,9.31,9.31,0,0,1-.6.927,6.135,6.135,0,0,1-.514.614,5.425,5.425,0,0,1-.539.539,2.822,2.822,0,0,0-.338.7,2.882,2.882,0,0,0,0,1.316c.175.84,5.176,9.925,12.194,22.219Z" transform="translate(69.457 24.404)" fill="#ffcbc2"/>
        <path id="Path_73" data-name="Path 73" d="M364.372,96.11c-8.772.79-18.146,5.013-23.923,12.532-9.712,12.532-22.044,28.435-22.044,28.435l-20.2-20.653-19.024,15.84S305.5,169.409,318.568,169.5c11.742.075,31.568-16.768,37.32-25.841C367.443,125.372,364.372,96.11,364.372,96.11Z" transform="translate(70.653 23.708)" fill="#b2d1ff"/>
        <path id="Path_74" data-name="Path 74" d="M374.572,94.65s-2.431,3.584-12.269,4.6c-7.444.764-9.261-2.77-9.261-2.77s-17.946,9.562-23.272,49.175S323.93,206,323.93,206h84.277s.276-30.139-2.193-56.043C403.483,123.323,397.956,100.816,374.572,94.65Z" transform="translate(81.983 23.338)" fill="#3b82f4"/>
        <path id="Path_75" data-name="Path 75" d="M353.551,96.11c-17.269,33.2-18.422,114.993-18.422,114.993H321.92s.614-53.023,10.6-87.611c4.248-14.687,15.139-26.317,21.029-27.382" transform="translate(81.474 23.708)" fill="#b2d1ff"/>
        <path id="Path_76" data-name="Path 76" d="M365.077,94.65c-10.364,22.344-1.178,116.823-1.178,116.823H404s-1.9-34.613-3.559-48.048-12.532-56.519-12.532-56.519Z" transform="translate(91.152 23.338)" fill="#b2d1ff"/>
        <path id="Path_77" data-name="Path 77" d="M391.944,166l-38.724.539v2.369l40.892-.576h0A2.281,2.281,0,0,0,391.944,166Z" transform="translate(89.399 41.404)" fill="#dcddef"/>
        <path id="Path_78" data-name="Path 78" d="M317.876,177.013l54.4-.764-10.915-36.343a4.161,4.161,0,0,0-3.96-3.1l-49.188.689a1.742,1.742,0,0,0-1.5,2.318Z" transform="translate(77.598 34.013)" fill="#dcddef"/>
        <path id="Path_79" data-name="Path 79" d="M315.926,177.04l54.4-.764-10.915-36.343a4.173,4.173,0,0,0-3.96-3.083l-49.188.689a1.729,1.729,0,0,0-1.5,2.306Z" transform="translate(77.104 34.023)" fill="#f2f5f9"/>
        <path id="Path_80" data-name="Path 80" d="M326.249,154.021a4.273,4.273,0,0,0,4.261,3.033c2.018,0,3.371-1.429,3.033-3.133a4.273,4.273,0,0,0-4.273-3.02C327.264,150.926,325.948,152.279,326.249,154.021Z" transform="translate(82.559 37.58)" fill="#dcddef"/>
        <path id="Path_81" data-name="Path 81" d="M379.637,134.68s10.627,18.648,10.026,22.946c-.476,3.246-29.463,10.69-29.463,10.69l1.253,18.259s48.511-4.123,54.151-13.848c7.72-13.321-13.647-47.8-13.647-47.8" transform="translate(91.167 31.005)" fill="#ffcbc2"/>
        <path id="Path_82" data-name="Path 82" d="M371.408,158.68c-3.985.689-24.926,4.938-24.675,6s6.391.827,6.266,1.4c-.263.827-4.812,1.93-7.419,2.306-2.331.351-6.015,1.253-5.99,2.306,0,1.968,12.77-.075,12.77-.075s-14.111-.376-14.249,1.253c-.2,2.369,14.738,2.193,15.264,2.719,0,0-13-3.459-13.146-1.7s11.379,5.126,14.938,4.875c-2.957-.338-11.993-4.737-12.056-3.12s7.745,3.9,9,3.985a71.645,71.645,0,0,0,19.613-1.454" transform="translate(85.573 39.551)" fill="#ffcbc2"/>
        <path id="Path_83" data-name="Path 83" d="M340.39,169a44.626,44.626,0,0,1,5.013-.551c1.667-.088,3.333-.138,5.013-.075a20.62,20.62,0,0,1-2.506.464c-.827.125-1.667.175-2.506.238A30.588,30.588,0,0,1,340.39,169Z" transform="translate(86.151 41.998)" fill="#f7958b"/>
        <path id="Path_84" data-name="Path 84" d="M341.59,170.61c3.659,0,7.218.388,10.853.539a13.233,13.233,0,0,1-2.719.338,24.79,24.79,0,0,1-2.732,0,29.16,29.16,0,0,1-5.4-.877Z" transform="translate(86.455 42.571)" fill="#f7958b"/>
        <path id="Path_85" data-name="Path 85" d="M343.44,172.28a47.5,47.5,0,0,1,4.837.4c1.6.213,3.183.439,4.8.727a14.5,14.5,0,0,1-2.444.088,22.427,22.427,0,0,1-2.431-.188,27.12,27.12,0,0,1-4.762-1.028Z" transform="translate(86.923 42.994)" fill="#f7958b"/>
        <path id="Path_86" data-name="Path 86" d="M365.027,94.65c11.341,1.83,25.427,5.364,31.154,12.833,8.772,11.467,32.245,59.452,23.56,71.219-7.381,10.026-48.361,17.545-48.361,17.545L360.34,173.689l28.009-10.452-17.432-38.009" transform="translate(91.202 23.338)" fill="#b2d1ff"/>
        <path id="Path_87" data-name="Path 87" d="M276.559,120.51s6.517,14.788,8.2,25.878S271.033,188.8,271.033,188.8l-13.184-7.745s4.01-23.322,4.01-31.618-7.519-19.863-7.519-19.863" transform="translate(64.363 29.886)" fill="#ffcbc2"/>
        <path id="Path_88" data-name="Path 88" d="M259.347,167.4c-1.7,5.126-9.048,19.186-8.3,19.988s3.409-4.1,3.9-3.321-3.07,8.622-2.105,9.224c1.316.827,4.537-7.394,4.537-7.394s-3.083,9.173-1.729,9.562c.952.276,3.622-6.617,5.013-9.123-1.115,2.895-2.381,7.82-1.379,8.083s2.907-4.4,4.562-7.883c-.827,2.268-2.118,6.492-1.253,6.78s6.366-10.7,11.091-21.3" transform="translate(63.517 41.758)" fill="#ffcbc2"/>
        <path id="Path_89" data-name="Path 89" d="M251.175,223.978C249.583,261.085,259.8,353.96,259.8,353.96l-11.467,7.294s35.265,1.642,36.343.614-1.253-8.108-1.253-8.108,1.028-109.692,2.043-125.946S252.779,186.859,251.175,223.978Z" transform="translate(62.842 51.173)" fill="#ffcbc2"/>
        <path id="Path_90" data-name="Path 90" d="M276.943,331.423l8.459-4.612-.664-2.431-10.978,7.043h-3.434l-12.219-6.04-13.284,8.309a1.792,1.792,0,0,0,.965,3.321l17.846-.063,5.69-3.96h1.617v3.948h15.389v-5.514Z" transform="translate(61.736 81.505)" fill="#011e3b"/>
        <path id="Path_91" data-name="Path 91" d="M215.636,231.79c-2.506,52.158-1.6,123.6-1.6,123.6l-11.442,7.331s35.277,1.529,36.343.5-1.316-8.1-1.316-8.1,9.8-90.543,13.321-124.4S218.23,179.645,215.636,231.79Z" transform="translate(51.26 49.69)" fill="#ffcbc2"/>
        <path id="Path_92" data-name="Path 92" d="M231.254,331.355l8.434-4.624-.677-2.431-10.94,7.143H224.6l-12.256-6L199.1,333.8a1.8,1.8,0,0,0,.965,3.321l17.846-.125,5.689-3.985h1.617v3.935l15.377-.088v-5.5Z" transform="translate(50.167 81.485)" fill="#011e3b"/>
        <path id="Path_93" data-name="Path 93" d="M277.273,157.18c3.033,3.12,9.825,17.482,12.645,31.606,6.617,33.21,6.717,106.609,6.717,106.609H211.58s.489-70.53,3.76-101.258c1.767-16.367,6.6-30.591,9.562-36.831" transform="translate(53.537 39.171)" fill="#0f4c75"/>
        <path id="Path_94" data-name="Path 94" d="M247.45,95.64c25.452,1.617,33.836,33.41,33.836,33.41L263.3,141.457" transform="translate(62.619 23.589)" fill="#2c79e8"/>
        <path id="Path_95" data-name="Path 95" d="M223.11,109.431s-18.986,14.65-22.031,14.713-27.646-22.783-27.646-22.783L160.55,116.4s25.841,35.227,39.7,35.227c18.384,0,37.959-20.176,37.959-20.176" transform="translate(40.616 25.037)" fill="#ffcbc2"/>
        <path id="Path_96" data-name="Path 96" d="M236.731,95.746s2.945,2.243,8.647,1.566a80.785,80.785,0,0,0,10.3-1.892c0,.15,22.946,10.64,23.685,23.9.815,14.775.764,23.573-3.1,53.574H223.886s-8.146-36.719-8.146-50.792S236.731,95.746,236.731,95.746Z" transform="translate(54.59 23.533)" fill="#3b82f4"/>
        <path id="Path_97" data-name="Path 97" d="M239.668,95.68a30.528,30.528,0,0,0-14.4,3.434,101.9,101.9,0,0,0-21.129,16.768l15.251,26.944,16.028-11.341" transform="translate(51.653 23.599)" fill="#3b82f4"/>
        <path id="Path_98" data-name="Path 98" d="M184.949,112.83s-21.668-20.051-23.009-19.562,2.506,4.324,1.328,4.5-9.775-8.923-10.991-8.1c-1.654,1.115,5.765,8.66,5.765,8.66s-1.955-1.328-3.108,0c-.815.977,1.5,4.023,1.5,4.023s-2.256-1.491-3.083-.464,1.191,4.11,1.191,4.11-1.6-1.253-2.13-.088c-.852,1.754,9.863,14.274,19.826,25.289" transform="translate(38.461 22.064)" fill="#ffcbc2"/>
        <path id="Path_99" data-name="Path 99" d="M250.272,84.89l1.942,14.587s-9.5,9.775-19.6-1.065L232,90.241Z" transform="translate(58.707 20.867)" fill="#ffcbc2"/>
        <path id="Path_100" data-name="Path 100" d="M235.85,69.671s-13.71,15.452-8.7,21.918c2.607,3.321,13.785,7.406,17.9,4.875,3.008-1.88,8.66-15.038,7.381-17.545C247.517,69.095,235.85,69.671,235.85,69.671Z" transform="translate(57.2 17.012)" fill="#ffcbc2"/>
        <path id="Path_101" data-name="Path 101" d="M235.272,73.159c-.852,9.036,1.817,13.635,1.817,13.635s-5.965,18.886-4.662,20.69,20.615,4.587,30.077.576c0,0,1.491-28.535-7.143-35.779-8.2-6.893-18.8-6.266-24.6-2.669a4.649,4.649,0,0,0,2.594,2.632l2.181.965" transform="translate(58.393 16.331)" fill="#011e3b"/>
        <path id="Path_102" data-name="Path 102" d="M234.669,81.313c1.667-2.13,3.033-1.792,3.76-.627.977,1.554-1,4.787-1.917,5.339-1.867,1.115-3.384,1-3.521-.514" transform="translate(58.958 19.569)" fill="#ffcbc2"/>
        <path id="Path_103" data-name="Path 103" d="M68.658,70.616s4.461,17.043,2.005,20.54c-3.672,5.226-12.419,5.627-16.1,3.221-3.033-2.03-5.639-12.87-5.639-15.7C48.92,71.017,64.623,66.594,68.658,70.616Z" transform="translate(12.352 16.869)" fill="#ffcbc2"/>
        <path id="Path_104" data-name="Path 104" d="M46.952,88.573,45.21,103.537a20.765,20.765,0,0,0,14.036,6.04c8.459,0,8.459-5.639,8.459-5.639L66.088,91.055l-13-13.635L46.952,88.573" transform="translate(11.412 18.976)" fill="#ffcbc2"/>
        <path id="Path_105" data-name="Path 105" d="M55.432,79.654c0-.977,0-1.955-.063-2.932a8.91,8.91,0,0,0-.3-2.331,49.74,49.74,0,0,0,12.72.852,8.008,8.008,0,0,0,3.9-1.028c1.028-.664.815-10.414-11.592-10.89a13.56,13.56,0,0,0-6.93,1.1c-2.08,1.115-5.288,3.258-5.351,5.627-3.033,1.028-6.266,7.055-4.524,13.434.99,3.584,1.642,7.281,4.273,8.635,3.359-1.366,5.639-5.138,6.266-5.953a11.63,11.63,0,0,0,1.6-6.517Z" transform="translate(10.802 15.388)" fill="#4a1a1a"/>
        <path id="Path_106" data-name="Path 106" d="M53.307,80.519a3.208,3.208,0,0,0-2.293-1.379,2.945,2.945,0,0,0-1.78,1.015c-2.231,2.506.2,7.331,3.622,6.792,1.253-.188.915-1.855.915-1.855" transform="translate(12.214 19.411)" fill="#ffcbc2"/>
        <path id="Path_107" data-name="Path 107" d="M67.43,295.045l3.434,34.576-.288,10.865,42.609-.213a1.867,1.867,0,0,0,1.867-1.892h0a1.867,1.867,0,0,0-1.253-1.755l-18.322-8.459L93.722,292.2" transform="translate(17.038 73.357)" fill="#ffcbc2"/>
        <path id="Path_108" data-name="Path 108" d="M116.779,332.542a5.715,5.715,0,0,0-2.043-3.246l-19.487-8.4c-10.752,4.361-24.663,1.028-24.663,1.028L68.08,336.615a.877.877,0,0,0,.89.865h47.459C117.406,337.48,116.854,332.592,116.779,332.542Z" transform="translate(17.203 80.624)" fill="#011e3b"/>
        <path id="Path_109" data-name="Path 109" d="M94.154,179.332c7.331,52.634,13.9,177.014,13.9,177.014H71.346s-7.519-77.7-14-133.992c-16.154-26.731-14.9-55.667-16.718-59.514" transform="translate(10.253 40.604)" fill="#0f4c75"/>
        <path id="Path_110" data-name="Path 110" d="M20.755,295.045,19.188,329.62,18.9,340.486l42.609-.213a1.892,1.892,0,0,0,1.88-1.892h0a1.88,1.88,0,0,0-1.253-1.754L43.8,328.167,47.047,292.2" transform="translate(4.751 73.357)" fill="#ffcbc2"/>
        <path id="Path_111" data-name="Path 111" d="M65.739,332.542A5.84,5.84,0,0,0,63.7,329.3l-19.5-8.4c-10.74,4.361-24.65,1.028-24.65,1.028L17.04,336.615a.877.877,0,0,0,.89.865H65.413C66.366,337.48,65.752,332.592,65.739,332.542Z" transform="translate(4.28 80.624)" fill="#011e3b"/>
        <path id="Path_112" data-name="Path 112" d="M22.617,172.325a205.236,205.236,0,0,0,.9,41.205C20.386,276.917,16,354.277,16,354.277H52.756s17.67-140.358,18.5-182.967" transform="translate(4.017 42.748)" fill="#0f4c75"/>
        <path id="Path_113" data-name="Path 113" d="M95.191,122.4s8.509,11.93,11.279,12.469,26.455-25.941,26.455-25.941l14.449,11.153s-21.5,43.461-41.694,44.626c-17.432,1-34.3-26.229-34.3-26.229" transform="translate(18.039 26.954)" fill="#ffcbc2"/>
        <path id="Path_114" data-name="Path 114" d="M52.445,94.47s2.431,3.584,12.269,4.6c7.444.764,9.261-2.77,9.261-2.77s17.946,9.562,23.272,49.175,5.84,60.341,5.84,60.341H18.822S18.534,175.74,21,149.774C23.534,123.143,29.073,100.636,52.445,94.47Z" transform="translate(4.729 23.293)" fill="#a4ccfc"/>
        <path id="Path_115" data-name="Path 115" d="M75.59,202.9,36.8,195.427l-1.253-1.253L49.435,136.69l41.293,9.963,1.253,1.253Z" transform="translate(8.967 33.983)" fill="#edeef7"/>
        <path id="Path_116" data-name="Path 116" d="M75.59,202.9,36.8,195.427l-1.253-1.253L49.435,136.69l1.253,1.253Z" transform="translate(8.967 33.983)" fill="#ccd2ed"/>
        <rect id="Rectangle_20" data-name="Rectangle 20" width="42.483" height="59.151" transform="translate(59.652 171.926) rotate(13.58)" fill="#b8c4e8"/>
        <path id="Path_117" data-name="Path 117" d="M78.175,205.428,36.82,195.4s9-37.42,10.5-43.185c0,0,2.657-6.592,7.519-9.048a18.66,18.66,0,0,1,9.587-1.88L92,147.957Z" transform="translate(9.288 35.135)" fill="#fff"/>
        <line id="Line_35" data-name="Line 35" x1="30.829" y1="7.118" transform="translate(52.587 227.292)" fill="none" stroke="#edeef7" stroke-miterlimit="10" stroke-width="1"/>
        <line id="Line_36" data-name="Line 36" x1="30.841" y1="7.118" transform="translate(53.414 223.934)" fill="none" stroke="#edeef7" stroke-miterlimit="10" stroke-width="1"/>
        <line id="Line_37" data-name="Line 37" x1="30.841" y1="7.131" transform="translate(54.254 220.562)" fill="none" stroke="#edeef7" stroke-miterlimit="10" stroke-width="1"/>
        <line id="Line_38" data-name="Line 38" x1="30.841" y1="7.118" transform="translate(55.094 217.204)" fill="none" stroke="#edeef7" stroke-miterlimit="10" stroke-width="1"/>
        <line id="Line_39" data-name="Line 39" x1="30.841" y1="7.131" transform="translate(55.933 213.833)" fill="none" stroke="#edeef7" stroke-miterlimit="10" stroke-width="1"/>
        <line id="Line_40" data-name="Line 40" x1="30.841" y1="7.118" transform="translate(56.773 210.474)" fill="none" stroke="#edeef7" stroke-miterlimit="10" stroke-width="1"/>
        <line id="Line_41" data-name="Line 41" x1="30.841" y1="7.118" transform="translate(57.612 207.116)" fill="none" stroke="#edeef7" stroke-miterlimit="10" stroke-width="1"/>
        <line id="Line_42" data-name="Line 42" x1="30.841" y1="7.131" transform="translate(58.452 203.745)" fill="none" stroke="#edeef7" stroke-miterlimit="10" stroke-width="1"/>
        <line id="Line_43" data-name="Line 43" x1="30.841" y1="7.118" transform="translate(59.279 200.386)" fill="none" stroke="#edeef7" stroke-miterlimit="10" stroke-width="1"/>
        <line id="Line_44" data-name="Line 44" x1="30.841" y1="7.118" transform="translate(60.119 197.027)" fill="none" stroke="#edeef7" stroke-miterlimit="10" stroke-width="1"/>
        <line id="Line_45" data-name="Line 45" x1="30.841" y1="7.131" transform="translate(60.958 193.656)" fill="none" stroke="#edeef7" stroke-miterlimit="10" stroke-width="1"/>
        <line id="Line_46" data-name="Line 46" x1="30.841" y1="7.118" transform="translate(61.798 190.298)" fill="none" stroke="#edeef7" stroke-miterlimit="10" stroke-width="1"/>
        <line id="Line_47" data-name="Line 47" x1="30.841" y1="7.131" transform="translate(62.638 186.927)" fill="none" stroke="#edeef7" stroke-miterlimit="10" stroke-width="1"/>
        <line id="Line_48" data-name="Line 48" x1="30.841" y1="7.118" transform="translate(63.477 183.568)" fill="none" stroke="#edeef7" stroke-miterlimit="10" stroke-width="1"/>
        <line id="Line_49" data-name="Line 49" x1="16.83" y1="3.81" transform="translate(72.613 180.473)" fill="none" stroke="#edeef7" stroke-miterlimit="10" stroke-width="1"/>
        <path id="Path_118" data-name="Path 118" d="M52.749,143.149c-4.9,2.506-7.519,9.048-7.519,9.048s6.166-6.266,12.244-5.852c.113-3.2,4.9-5.013,4.9-5.013a18.66,18.66,0,0,0-9.625,1.817Z" transform="translate(11.418 35.143)" fill="#edeef7"/>
        <path id="Path_119" data-name="Path 119" d="M62.83,95.93c8.772.79,18.384,4.11,23.41,10.427a205.138,205.138,0,0,1,17.444,26.317L80.011,149.4Z" transform="translate(15.874 23.662)" fill="#b2d1ff"/>
        <path id="Path_120" data-name="Path 120" d="M38.078,138.85s-8.233,18.084-7.619,22.382c.476,3.258,27.069,11.279,27.069,11.279L56.274,190.77S7.763,186.647,2.136,176.985C-5.646,163.575,10.62,129.1,10.62,129.1" transform="translate(-0.028 32.061)" fill="#ffcbc2"/>
        <path id="Path_121" data-name="Path 121" d="M41.486,162.84c3.973.7,24.914,4.95,24.663,6.015s-6.391.827-6.266,1.4c.263.827,4.812,1.93,7.419,2.306,2.331.351,6,1.253,5.99,2.306,0,1.968-12.77-.075-12.77-.075s14.1-.376,14.249,1.253c.2,2.369-14.75,2.193-15.276,2.719,0,0,13.008-3.459,13.159-1.7s-11.379,5.126-14.951,4.875c2.97-.338,12.006-4.737,12.068-3.12s-7.757,3.9-9.01,3.985a71.582,71.582,0,0,1-19.6-1.454" transform="translate(10.387 40.604)" fill="#ffcbc2"/>
        <path id="Path_122" data-name="Path 122" d="M67.736,173.127a30.617,30.617,0,0,1-5.013.075,16.8,16.8,0,0,1-2.506-.238,21.563,21.563,0,0,1-2.506-.464c1.692,0,3.359,0,5.013.075a44.969,44.969,0,0,1,5.013.551Z" transform="translate(14.577 43.05)" fill="#f7958b"/>
        <path id="Path_123" data-name="Path 123" d="M66.705,174.78a29.322,29.322,0,0,1-5.4.827,25.064,25.064,0,0,1-2.744,0,14.286,14.286,0,0,1-2.719-.338C59.474,175.169,63.046,174.768,66.705,174.78Z" transform="translate(14.104 43.627)" fill="#f7958b"/>
        <path id="Path_124" data-name="Path 124" d="M64.607,176.45a28.158,28.158,0,0,1-4.75,1.028c-.815.088-1.617.175-2.431.188a14.5,14.5,0,0,1-2.506-.088c1.6-.288,3.2-.514,4.787-.727a47.791,47.791,0,0,1,4.9-.4Z" transform="translate(13.871 44.05)" fill="#f7958b"/>
        <path id="Path_125" data-name="Path 125" d="M55.709,94.472c-9.938-.163-19.625,1.7-25.828,6.266C18.288,109.36,7.21,137.833,7.21,137.833L39.4,150.365,53.44,123.082" transform="translate(1.791 23.291)" fill="#b2d1ff"/>
        <path id="Path_126" data-name="Path 126" d="M115.63,119.351S131.458,99.5,132.536,99.576s-.99,3.684-.088,3.584,5.727-8.133,6.792-7.757c1.429.489-3.146,7.619-3.146,7.619s1.253-1.341,2.381-.539c.8.564,0,2.757,0,2.757s1.253-.764,2.105-.163,0,2.506,0,2.506,1.253-1.541,2.156-.276-3.4,12.081-10.777,24" transform="translate(29.242 23.526)" fill="#ffcbc2"/>
      </g>
    </g>
  </g>
</svg>
