<svg xmlns="http://www.w3.org/2000/svg" viewBox="0 0 398.57 384.19"><defs><style>.cls-1{fill:#cad0db;opacity:0.33;}.cls-2{fill:#7796b7;}.cls-3{fill:#4b6cb7;}.cls-4{fill:#6e91e0;}.cls-5{fill:#19758e;}.cls-6{fill:#ebeded;}.cls-7,.cls-8{fill:#3b5172;}.cls-8{font-size:6.03px;}.cls-14,.cls-15,.cls-18,.cls-19,.cls-20,.cls-25,.cls-8{font-family:TTNorms-Light, TT Norms;font-weight:300;}.cls-9{letter-spacing:-0.04em;}.cls-10{fill:#0f394c;}.cls-11{font-size:4.49px;fill:#f3f4e9;font-family:TTNorms-Medium, TT Norms;font-weight:500;}.cls-12{letter-spacing:-0.04em;}.cls-13{opacity:0.57;}.cls-14,.cls-15,.cls-18,.cls-20,.cls-25{font-size:4.1px;}.cls-14{fill:#354c68;}.cls-15{fill:#354d68;}.cls-16{fill:none;stroke:#354668;stroke-miterlimit:10;stroke-width:0.5px;}.cls-17{opacity:0.52;}.cls-18{fill:#355268;}.cls-19{font-size:5px;fill:#263a60;}.cls-20{fill:#37366a;}.cls-21{letter-spacing:-0.02em;}.cls-22{letter-spacing:0.02em;}.cls-23{letter-spacing:-0.02em;}.cls-24{letter-spacing:0.02em;}.cls-25{fill:#354968;}.cls-26,.cls-29{fill:#0f4c75;}.cls-26{opacity:0.25;}.cls-27{fill:#f5ba9a;}.cls-28{fill:#4192bf;}</style></defs><g id="Layer_2" data-name="Layer 2"><g id="Layer_3" data-name="Layer 3"><g id="Objects"><path class="cls-1" d="M0,106.84l111.48-.34-28.43-5.81s1.16-31.92-12.77-25.54A24.85,24.85,0,0,0,55.77,95.47S50.54,82.7,43,87.34s-11,12.77-11,12.77-2.71-9.19-7.54-9.71c-4.14-.44-12,8.3-16.13,13.21Z"/><path class="cls-1" d="M306.61,158.63l92-.26-23.46-4.31s1-23.72-10.53-19-12,15.09-12,15.09-4.31-9.48-10.53-6a23.84,23.84,0,0,0-9.1,9.48s-2.23-6.82-6.22-7.21c-3.41-.33-9.9,6.16-13.3,9.81Z"/><path class="cls-1" d="M157,26.84l92-.29L225.5,21.76S226.46-4.57,215,.7a20.48,20.48,0,0,0-12,16.75s-4.31-10.53-10.53-6.7a25.65,25.65,0,0,0-9.1,10.53s-2.23-7.58-6.22-8c-3.42-.36-9.91,6.85-13.31,10.9Z"/><path class="cls-2" d="M272,296.85c-1.73-3.36,2.3-7,6-7.61s7.92-.16,10.87-2.5c3.95-3.12,3.75-9.94,8.12-12.43,3.51-2,8.15-.09,11.87-1.68,4.62-2,5.92-8.4,10.45-10.56,3.61-1.72,8.33.23,10.18,3.78s1,8.14-1.56,11.22c-2,2.4-5,4.09-6.2,7-1.95,4.5,1.12,10-.67,14.51-3.3,8.43-18.92,5.89-21.63,14.53-.6,1.92-.35,4-.51,6-.47,6-4.68,11.19-9.88,14.17s-11.29,4-17.27,4.43c-2.44.17-5,.22-7.19-.9a11.8,11.8,0,0,1-4.59-5c-7.18-13-10.14-30,12-34.88"/><path class="cls-3" d="M156.86,289.92c3.86-2.55,1.72-8.82-1.85-11.76s-8.38-4.93-10.13-9.22c-2.34-5.72,2-12.88-1.19-18.18-2.55-4.26-8.67-5-11.69-8.95-3.76-4.88-1.27-12.54-4.82-17.58-2.82-4-9.05-4.78-13.16-2.1s-6,8.11-5.08,13c.68,3.77,2.83,7.36,2.43,11.18-.63,6-7.19,10-8,15.92-1.54,11,16.69,17.7,14.39,28.56-.51,2.42-2,4.49-3.07,6.73-3.1,6.67-1.74,14.79,2,21.11s9.66,11.08,15.81,15.13c2.51,1.66,5.23,3.26,8.23,3.37,2.83.11,5.54-1.13,7.94-2.62,15.53-9.61,28.92-26,8.18-44.54"/><path class="cls-4" d="M258.16,303.72c5.4-2.33,10.26-6.64,14.29-10.8,10.87-11.22,17.61-25.88,21.16-41,3.21-13.65,3.92-27.77,3.25-41.74-.05-1.18-1.9-1.19-1.84,0,1.5,31.39-4.73,69.92-32.83,89a30,30,0,0,1-5,2.89c-1.09.47-.15,2.06.93,1.6Z"/><path class="cls-4" d="M293.86,246.67s1.78-10.17,15.26-11.78C309.12,234.89,304.2,246.93,293.86,246.67Z"/><path class="cls-4" d="M289.45,261.7s4.1-9.47,17.58-7.89C307,253.81,299.44,264.36,289.45,261.7Z"/><path class="cls-4" d="M283.72,275s6.13-8.31,18.91-3.75C302.63,271.2,292.87,279.78,283.72,275Z"/><path class="cls-4" d="M295.93,230.88s1.75-10,15-11.58C310.93,219.3,306.1,231.13,295.93,230.88Z"/><path class="cls-4" d="M296.11,213.51s-7.54-6.8-1.85-18.86C294.26,194.65,301.72,205,296.11,213.51Z"/><path class="cls-4" d="M296.16,223.81s-10-1.84-11.44-15.1C284.72,208.71,296.5,213.65,296.16,223.81Z"/><path class="cls-4" d="M295.16,239s-10-1.84-11.44-15.1C283.72,223.94,295.51,228.88,295.16,239Z"/><path class="cls-4" d="M292.57,253.31s-9.82-2.54-10.35-15.87C282.22,237.44,293.63,243.2,292.57,253.31Z"/><path class="cls-4" d="M288,267.56s-9.82-2.54-10.35-15.87C277.69,251.69,289.1,257.45,288,267.56Z"/><rect class="cls-5" x="137.6" y="58.28" width="143.42" height="281.22" rx="21.15"/><rect class="cls-6" x="144.22" y="66.55" width="130.18" height="263.01" rx="14.81"/><path class="cls-5" d="M248.26,66.55H239.8a4.7,4.7,0,0,0-4.71,4.7v3.36a4.69,4.69,0,0,1-4.7,4.7H192.64a4.7,4.7,0,0,1-4.71-4.7V71.25a4.69,4.69,0,0,0-4.7-4.7h-24V64.13h89.07Z"/><path class="cls-7" d="M212.93,107.08a1.76,1.76,0,1,0-1.64,0,2.75,2.75,0,0,0-1.92,2.61v1.38h5.47v-1.38A2.75,2.75,0,0,0,212.93,107.08Z"/><text class="cls-8" transform="translate(195.5 120.75)">Regis<tspan class="cls-9" x="14.76" y="0">t</tspan><tspan x="16.62" y="0">er Here</tspan></text><rect class="cls-10" x="181.55" y="278.82" width="54.17" height="12.16" rx="0.98"/><text class="cls-11" transform="translate(199.29 286.22)">Regis<tspan class="cls-12" x="11.33" y="0">t</tspan><tspan x="12.85" y="0">er</tspan></text><g class="cls-13"><text class="cls-14" transform="translate(162.57 137.1)">Email Address</text></g><text class="cls-15" transform="translate(167.18 150.48)">SIAM VIT@gmail.com</text><rect class="cls-16" x="162.57" y="141.56" width="99.08" height="14.93" rx="2.76"/><g class="cls-17"><text class="cls-18" transform="translate(162.57 170.33)">Domain</text></g><text class="cls-19" transform="translate(167.18 183.83)">Design</text><rect class="cls-16" x="162.57" y="174.92" width="99.08" height="14.93" rx="2.76"/><g class="cls-17"><text class="cls-20" transform="translate(162.57 205.42)">Phone No</text></g><text class="cls-20" transform="translate(167.18 218.68)"><tspan class="cls-21">9</tspan><tspan class="cls-22" x="2.28" y="0">4</tspan><tspan x="4.67" y="0">40</tspan><tspan class="cls-23" x="9.74" y="0">9</tspan><tspan class="cls-24" x="12.01" y="0">4</tspan><tspan x="14.41" y="0">8503</tspan></text><rect class="cls-16" x="162.57" y="210.01" width="99.08" height="14.93" rx="2.76"/><g class="cls-17"><text class="cls-15" transform="translate(162.57 240.68)"><tspan class="cls-21">P</tspan><tspan x="2.54" y="0">assword</tspan></text></g><text class="cls-25" transform="translate(167.18 253.93)">Entry password</text><rect class="cls-16" x="162.57" y="245.26" width="99.08" height="14.93" rx="2.76"/><path class="cls-26" d="M258.94,382.08c0-1.17-28.53-2.11-63.74-2.11s-63.73.94-63.73,2.11,28.53,2.11,63.73,2.11S258.94,383.24,258.94,382.08Z"/><path class="cls-27" d="M187.94,247.22s6.33,9.78,7.76,5.54l2.32-6.83s-1.8-3-2.76-2-2.28-.78-2.28-.78Z"/><path class="cls-27" d="M218.24,196.64l2.62-15.2c1.72-.55,3.48-1.88,2.88-3.93a3,3,0,0,0-2.05-1.93c-.36-.13-2.19-.66-2.32,0,0,0,1-5.48,1-5.48l-17.82-8.6-1.65,11c0-.17-1.73-.56-2-.54a3,3,0,0,0-2.12,1.72,3.53,3.53,0,0,0,3.11,4.71s.31,4.9,1.44,6.63,6.38,2.94,6.38,2.94l-.58,6.62Z"/><path class="cls-28" d="M224.26,197.88c-8-2.26-19.36-4.24-19.36-4.24l-7.51,53.44,31.62-1Z"/><path class="cls-28" d="M224.26,197.88a208.69,208.69,0,0,0,31.71,6c-2.41-11-3.72-19.33-6.87-28.63l11.87-3s10,34.68,6.94,39.31c-5.15,7.87-30.76,2.69-30.76,2.69L225,212Z"/><path class="cls-28" d="M170.12,209.65s33.93-16.6,35.49-16S208.5,202,208.5,202a300,300,0,0,1-31.33,16.67l17.31,23.55-8.62,6.18S162.1,221.67,163,216.15C163.7,211.89,170.12,209.65,170.12,209.65Z"/><path class="cls-27" d="M260.46,172.32s-1.4-9.82-1.57-10.1-.17-2-2.69-1.59c0,0-.17-3.12-1.63-3.17a13.18,13.18,0,0,0-3.08.33s-1.64-8-2.7-9.35-2.79,2.46-.27,12.19c0,0,1.4,6.61,1,6.85-1.12.66-2.67.54-4.82-3.13-2.28-3.9-5.12-2.58-3.72.45s3.39,6.94,4.68,8,4,.9,4,.9L250,175Z"/><path class="cls-29" d="M229,244.9A455,455,0,0,1,232.83,310a455.72,455.72,0,0,1-5.56,65.28l12.66,5.36H213L220,255l-10.09,1.38q-15,62.19-30,124.37H152.93l15.32-5.58q14.72-64.91,29.42-129.8Z"/><path class="cls-29" d="M222.52,176c1.51-3,3.27-10.32-1.31-12.36a46.5,46.5,0,0,1-6.65-3.79,11.57,11.57,0,0,0-9.49-1.71,8.71,8.71,0,0,0-1.5.56c-3.19,1.57-5.35,10.06-5.35,10.06l3.14.78s3.5,15.57,9.26,18.77l5.75,1.22,3.4.76Z"/></g></g></g></svg>